<svg width="354" height="354" viewBox="0 0 354 354" fill="none" xmlns="http://www.w3.org/2000/svg">
<path d="M74.2915 135.582C73.3003 137.239 71.2259 137.94 69.4417 138.297C67.162 138.765 64.8043 138.889 62.4963 139.094L61.1546 139.423C60.9007 139.501 60.6647 139.629 60.4603 139.799C60.2558 139.969 60.0869 140.177 59.9633 140.412C59.8396 140.647 59.7636 140.905 59.7396 141.169C59.7156 141.434 59.7442 141.701 59.8236 141.954C60.6537 144.811 61.7957 147.567 63.229 150.174L61.105 152.298C60.5032 151.484 60.4749 150.057 59.6678 150.195C58.8925 149.42 57.9721 149.041 57.0199 150.078C55.1578 152.114 55.4587 156.344 58.1952 157.512L57.5827 160.56C57.3715 161.626 56.7975 162.586 55.9584 163.275C55.1194 163.965 54.0671 164.343 52.9807 164.345L53.4516 160.737C50.2656 162.348 46.6512 158.865 46.9026 155.994C47.0654 154.026 46.6194 152.666 45.1644 151.24C45.0688 151.144 45.6529 150.79 45.5644 150.694C45.1538 149.452 45.0972 148.001 45.5043 147.179C46.2123 145.714 48.2973 144.857 47.338 143.257C46.9169 142.56 46.6098 141.8 46.4282 141.005C46.2356 139.953 46.2708 138.871 46.5316 137.833C46.7923 136.794 47.2725 135.824 47.9398 134.987C49.3558 133.288 51.6568 133.745 53.5365 133.143C55.8269 132.435 56.8854 129.982 59.2819 129.224C60.4749 128.846 61.5794 129.019 62.7724 129.292C63.7813 129.525 64.7796 129.787 65.7708 130.099C66.762 130.41 67.6328 130.669 68.6028 130.378C69.8842 130.024 70.8719 128.828 72.2702 128.817C72.9679 128.801 73.6509 129.019 74.2101 129.437C75.2438 131.295 75.2509 133.993 74.2915 135.582Z" fill="#7D63C4"/>
<path d="M30.4835 183.512C30.4835 183.512 -8.05647 141.004 48.7004 119.792C51.9915 118.585 55.4217 117.798 58.9097 117.449C67.9686 116.486 87.9943 113.063 90.3024 101.501" stroke="#CCDDE2" stroke-width="1.0462" stroke-miterlimit="10"/>
<path d="M192.27 124.006V123.996" stroke="#CCDDE2" stroke-width="1.0462" stroke-miterlimit="10"/>
<path d="M91.147 200.542V200.532" stroke="black" stroke-width="1.0462" stroke-miterlimit="10"/>
<path d="M61.0115 152.015C60.6343 151.363 60.1855 150.755 59.6734 150.203C58.8981 149.428 57.9777 149.049 57.0255 150.086C55.1634 152.122 55.4643 156.352 58.2008 157.52L57.5883 160.568C57.3771 161.634 56.8031 162.593 55.964 163.283C55.125 163.973 54.0727 164.351 52.9863 164.352" stroke="black" stroke-width="1.0462" stroke-linecap="round" stroke-linejoin="round"/>
<path d="M51.2729 177.839C51.4287 176.657 51.8146 173.552 52.1863 170.593C52.5403 167.849 52.8553 165.208 52.9792 164.337L53.4536 160.737" stroke="black" stroke-width="1.0462" stroke-linecap="round" stroke-linejoin="round"/>
<path d="M73.1283 142.365C73.1283 142.365 68.6078 142.588 67.7334 146.33" stroke="black" stroke-width="1.0462" stroke-miterlimit="10"/>
<path d="M74.7717 152.253C76.0036 152.221 77.6037 152.04 78.1843 150.79L75.0691 147.353C74.3091 146.511 73.8595 145.434 73.7947 144.302C73.6708 142.401 73.8938 139.385 72.0742 137.377" stroke="black" stroke-width="1.0462" stroke-miterlimit="10"/>
<path d="M72.1084 147.494C72.6183 146.929 72.6437 146.121 72.1651 145.689C71.6865 145.256 70.885 145.363 70.3751 145.927C69.8651 146.491 69.8397 147.299 70.3183 147.732C70.7969 148.164 71.5984 148.058 72.1084 147.494Z" fill="black"/>
<path d="M71.8035 174.831L69.4565 163.453" stroke="black" stroke-width="1.0462" stroke-miterlimit="10"/>
<path d="M131.299 226.036L116.172 238.405C134.371 266.158 120.597 271.252 120.597 271.252C117.925 271.763 115.227 272.126 112.515 272.339C99.3607 273.288 85.8662 269.893 75.0232 262.289C53.0752 246.89 33.9592 216.071 44.1544 189.238C45.0123 186.968 46.0603 184.775 47.2873 182.681C48.3446 180.862 49.6909 179.226 51.2734 177.839C54.043 175.414 57.4539 173.841 61.0961 173.308C64.7383 172.774 68.4569 173.304 71.8054 174.833C73.0872 175.418 74.2996 176.145 75.4197 177C81.151 181.386 86.3618 187.62 90.8541 194.162C94.8428 200.078 98.4321 206.253 101.598 212.648C102.472 214.393 103.265 216.042 103.966 217.554C110.321 214.984 115.648 210.619 120.604 205.904C114.611 217.09 131.299 226.036 131.299 226.036Z" fill="#353642"/>
<path d="M120.713 235.085C120.423 235.308 120.122 235.542 119.821 235.765" stroke="black" stroke-width="1.0462" stroke-miterlimit="10"/>
<path d="M75.9907 188.062C80.0027 195.744 84.0147 203.44 88.0267 211.15C91.0534 216.97 96.1687 220.563 103.373 217.806C111.21 214.804 117.533 209.065 123.381 203.217C129.229 197.369 135.155 191.776 143.598 190.268C154.511 188.317 164.838 194.265 172.272 201.78C172.844 202.353 173.205 203.103 173.299 203.907C173.392 204.711 173.211 205.523 172.785 206.212C172.512 206.653 172.147 207.029 171.715 207.316C171.283 207.603 170.795 207.793 170.283 207.874C169.771 207.955 169.247 207.925 168.748 207.785C168.249 207.645 167.786 207.4 167.39 207.065C163.868 204.06 158.136 199.713 154.15 199.656" stroke="black" stroke-width="1.0462" stroke-miterlimit="10"/>
<path d="M143.279 209.968C144.504 210.786 146.203 211.692 147.619 211.692" stroke="black" stroke-width="1.0462" stroke-miterlimit="10"/>
<path d="M158.976 201.147C161.589 202.44 162.541 206.22 160.697 208.479C158.358 211.381 155.428 213.751 152.101 215.431C148.462 217.247 146.126 216.139 142.543 213.923" stroke="black" stroke-width="1.0462" stroke-miterlimit="10"/>
<path d="M152.929 204.533C152.929 204.533 158.105 205.814 157.967 210.837C157.957 211.052 157.919 211.264 157.853 211.468" stroke="black" stroke-width="1.0462" stroke-miterlimit="10"/>
<path d="M149.27 207.698C149.27 207.698 156.211 212.184 152.909 215.005" stroke="black" stroke-width="1.0462" stroke-miterlimit="10"/>
<path d="M283.367 225.28C275.19 247.755 252.296 248.389 249.677 248.389C250.774 246.077 251.072 242.017 248.668 234.901C250.278 232.55 251.126 229.76 251.096 226.91C251.066 224.06 250.16 221.289 248.501 218.972C248.533 218.943 248.551 218.904 248.579 218.876C249.724 218.806 250.86 218.634 251.974 218.363C255.925 217.421 263.713 215.354 269.894 212.444C274.085 210.465 278.974 213.637 278.616 218.264C278.616 218.324 278.616 218.38 278.595 218.448C279.413 218.447 280.22 218.644 280.945 219.022C281.671 219.4 282.295 219.948 282.763 220.619C283.232 221.29 283.532 222.064 283.637 222.875C283.742 223.687 283.649 224.512 283.367 225.28V225.28Z" fill="#7D63C4"/>
<path d="M178.435 277.992C175.681 282.718 171.394 286.742 167.252 290.254C152.671 302.595 133.622 308.86 114.506 309.105C95.3266 308.86 76.2071 302.573 61.5586 290.343C15.2731 251.693 23.6381 206.059 31.1252 184.929C31.3889 184.198 31.7459 183.504 32.1872 182.865C32.7726 182.008 33.5326 181.285 34.4173 180.744C35.302 180.202 36.2913 179.853 37.3202 179.721C41.2496 180.263 44.8179 183.523 44.1878 188.571C44.1878 188.766 44.1099 189.035 44.0922 189.23C33.9041 216.063 53.0272 246.882 74.961 262.281C84.912 269.265 97.0966 272.699 109.203 272.476H109.342C110.38 272.455 111.417 272.407 112.453 272.331C119.254 271.836 125.863 270.207 132.408 268.235C140.09 265.938 147.687 263.152 155.362 261.201C158.059 260.515 160.764 259.853 163.482 259.233C165.051 258.911 166.656 258.8 168.254 258.904C177.681 259.541 184.305 267.924 178.435 277.992Z" fill="#D7E8F0"/>
<path d="M180.765 277.992C178.011 282.717 173.721 286.742 169.579 290.254C154.417 303.097 134.412 309.37 114.496 309.105C95.3166 308.86 76.1971 302.573 61.5486 290.343C15.2737 251.693 23.6387 206.059 31.1258 184.929C31.3895 184.198 31.7465 183.504 32.1878 182.865C32.7732 182.008 33.5332 181.285 34.4179 180.744C35.3026 180.202 36.2919 179.853 37.3208 179.721C41.2502 180.263 44.8185 183.523 44.1884 188.571C44.1884 188.766 44.1105 189.035 44.0928 189.23C33.9047 216.063 53.0278 246.882 74.9616 262.281C84.9126 269.265 97.0973 272.699 109.204 272.476H109.342C111.166 272.505 112.98 272.456 114.783 272.331C121.583 271.836 128.189 270.207 134.738 268.235C142.42 265.938 150.017 263.152 157.691 261.201C160.385 260.515 163.093 259.853 165.809 259.233C166.616 259.068 167.433 258.958 168.255 258.904C178.854 258.192 187.109 267.11 180.765 277.992Z" fill="#D7E8F0"/>
<path d="M117.694 309.042L122.353 315.633C122.353 315.633 150.542 316.731 165.969 329.68C168.822 332.077 167.116 336.732 163.392 336.732C162.458 336.735 161.553 336.406 160.839 335.804C157.197 332.746 143.281 323.131 111.803 322.841C81.1328 322.554 69.3694 332.045 66.1161 335.503C65.7451 335.894 65.298 336.204 64.8024 336.416C64.3069 336.627 63.7733 336.734 63.2346 336.732H62.6292C58.806 336.732 57.1882 331.903 60.2079 329.56C73.0864 319.545 101.955 316.352 101.955 316.352L106.883 308.918" fill="#353642"/>
<path d="M242.445 272.491C242.445 272.491 251.079 280.693 248.385 306.121C248.189 307.936 247.558 309.678 246.545 311.197L245.606 312.613C244.068 314.917 241.748 316.587 239.075 317.314C233.436 318.854 223.205 322.422 216.886 329.184C214.217 332.048 216.203 336.713 220.118 336.713C220.848 336.715 221.568 336.537 222.212 336.193C222.856 335.85 223.405 335.352 223.811 334.745C226.384 330.872 234.176 322.649 252.97 322.822C274.167 323.017 282.706 331.446 285.442 335.078C285.82 335.584 286.311 335.996 286.876 336.28C287.44 336.564 288.063 336.712 288.695 336.713V336.713C289.488 336.712 290.262 336.479 290.924 336.044C291.586 335.608 292.107 334.989 292.422 334.263C292.737 333.536 292.834 332.733 292.699 331.952C292.565 331.171 292.206 330.447 291.665 329.867C283.4 320.886 273.289 317.537 267.71 316.295C264.907 315.691 262.431 314.061 260.768 311.725C259.495 309.923 258.771 307.791 258.683 305.586C258.372 297.703 258.209 278.565 263.551 272.498" fill="#353642"/>
<path d="M132.479 268.248C147.662 260.878 164.14 256.042 180.343 251.49C196.648 246.909 213.113 242.913 229.627 239.157C236.225 237.659 242.884 236.325 249.451 234.636" stroke="black" stroke-width="1.0462" stroke-miterlimit="10"/>
<path d="M146.722 211.59H146.732H146.739" stroke="black" stroke-width="1.0462" stroke-miterlimit="10"/>
<path d="M145.02 210.629C144.068 211.571 140.669 216.601 139.816 217.504C135.129 222.527 130.15 227.269 124.906 231.706C123.585 232.804 122.187 233.936 120.714 235.083C120.424 235.306 120.123 235.54 119.822 235.763C109.839 243.339 96.8121 250.631 84.7761 245.958C84.4575 245.842 84.1459 245.707 83.838 245.569C65.3769 237.303 52.4736 216.601 51.3478 196.618C51.3089 195.966 51.2877 195.319 51.2806 194.678C51.1815 189.216 51.9886 183.753 57.2278 180.872" stroke="black" stroke-width="1.0462" stroke-miterlimit="10"/>
<path d="M44.1829 189.16L44.2573 188.579C45.4326 179.156 32.0514 175.977 28.876 184.929C21.3924 206.056 13.0239 251.68 59.32 290.336C89.2011 315.297 137.579 315.471 167.347 290.255C171.488 286.747 175.775 282.715 178.533 277.989C185.51 266.038 174.855 256.455 162.837 259.397" stroke="black" stroke-width="1.0462" stroke-miterlimit="10"/>
<path d="M117.694 309.042L122.353 315.633C122.353 315.633 150.542 316.731 165.969 329.68C168.822 332.077 167.116 336.732 163.392 336.732C162.458 336.735 161.553 336.406 160.839 335.804C157.197 332.746 143.281 323.131 111.803 322.841C81.1328 322.554 69.3694 332.045 66.1161 335.503C65.7451 335.894 65.298 336.204 64.8024 336.416C64.3069 336.627 63.7733 336.734 63.2346 336.732H62.6292C58.806 336.732 57.1882 331.903 60.2079 329.56C73.0864 319.545 101.955 316.352 101.955 316.352L106.883 308.918" stroke="black" stroke-width="1.0462" stroke-miterlimit="10"/>
<path d="M101.953 212.081C113.769 208.895 118.637 192.225 120.598 181.018" stroke="black" stroke-width="1.0462" stroke-miterlimit="10"/>
<path d="M90.8413 194.173C94.1239 193.743 97.2414 192.479 99.8959 190.5C102.55 188.522 104.653 185.896 106.003 182.873C106.286 182.272 106.423 181.613 106.405 180.949C106.386 180.285 106.212 179.635 105.897 179.05C104.608 176.664 102.686 173.899 103.143 171.039C103.472 169.021 105.132 167.602 107.037 167.145C108.002 166.892 109.019 166.909 109.975 167.195C110.548 167.357 111.078 167.645 111.526 168.037C111.974 168.43 112.33 168.917 112.566 169.464C113.03 170.551 112.478 171.627 111.625 172.335C110.772 173.043 109.773 173.294 108.732 173.577C108.598 173.616 108.23 173.694 107.823 173.772" stroke="black" stroke-width="1.0462" stroke-miterlimit="10"/>
<path d="M249.435 234.63C249.435 234.63 272.728 229.752 277.103 222.725C277.923 221.444 278.435 219.989 278.597 218.477" stroke="black" stroke-width="1.0462" stroke-miterlimit="10"/>
<path d="M134.814 222.627C175.443 218.312 221.3 218.949 221.3 218.949H247.036C248.699 218.951 250.357 218.756 251.974 218.368C255.925 217.427 263.713 215.363 269.894 212.45C274.085 210.471 278.974 213.643 278.616 218.273C278.616 218.33 278.616 218.39 278.595 218.457C279.412 218.457 280.216 218.654 280.94 219.032C281.665 219.409 282.287 219.955 282.755 220.624C283.224 221.293 283.524 222.065 283.63 222.875C283.737 223.684 283.646 224.508 283.367 225.275C274.687 249.131 249.433 248.384 249.433 248.384C246.204 248.48 242.983 248.607 239.751 248.774C211.278 250.158 183.057 254.154 155.431 261.21C147.757 263.16 140.16 265.943 132.478 268.244C125.929 270.222 119.313 271.84 112.512 272.336C99.3577 273.288 85.8632 269.89 75.0202 262.286C51.2703 245.619 30.8304 210.871 47.2843 182.664C53.0935 172.71 66.2481 169.984 75.4167 177C88.3483 186.894 98.678 206.17 103.977 217.54" stroke="black" stroke-width="1.0462" stroke-miterlimit="10"/>
<path d="M282.833 272.491H226.292" stroke="black" stroke-width="1.0462" stroke-miterlimit="10"/>
<path d="M214.879 261.073C214.887 258.046 216.093 255.146 218.233 253.006C220.373 250.865 223.272 249.659 226.299 249.649H282.847C285.874 249.658 288.775 250.864 290.915 253.005C293.056 255.145 294.262 258.046 294.271 261.073V261.073" stroke="black" stroke-width="1.0462" stroke-miterlimit="10"/>
<path d="M295.381 265.122C295.383 266.09 295.195 267.05 294.825 267.946C294.455 268.842 293.912 269.656 293.227 270.341C292.542 271.026 291.728 271.568 290.832 271.938C289.936 272.307 288.976 272.495 288.007 272.492H221.101C219.426 272.333 217.88 271.524 216.796 270.238C215.712 268.952 215.175 267.291 215.303 265.614C215.43 263.936 216.21 262.376 217.476 261.267C218.741 260.159 220.391 259.592 222.071 259.688H288.977C290.164 259.686 291.335 259.972 292.388 260.521C293.441 261.07 294.345 261.867 295.023 262.842C295.26 263.579 295.38 264.348 295.381 265.122V265.122Z" fill="#D7E8F0"/>
<path d="M295.385 265.12C295.388 266.088 295.199 267.048 294.83 267.944C294.46 268.84 293.917 269.654 293.232 270.339C292.546 271.024 291.732 271.566 290.836 271.936C289.941 272.305 288.981 272.493 288.012 272.49H221.106C220.124 272.511 219.148 272.337 218.235 271.976C217.321 271.615 216.489 271.075 215.787 270.389C215.086 269.702 214.528 268.882 214.147 267.977C213.766 267.072 213.57 266.1 213.57 265.118C213.57 264.136 213.766 263.164 214.147 262.259C214.528 261.353 215.086 260.534 215.787 259.847C216.489 259.16 217.321 258.621 218.235 258.26C219.148 257.899 220.124 257.724 221.106 257.746H288.012C289.569 257.745 291.087 258.237 292.348 259.153C293.608 260.068 294.546 261.358 295.028 262.84C295.265 263.577 295.385 264.346 295.385 265.12V265.12Z" stroke="black" stroke-width="1.0462" stroke-miterlimit="10"/>
<path d="M120.468 180.756L120.334 181.893C120.272 182.408 120.024 182.883 119.636 183.229C119.248 183.574 118.747 183.764 118.227 183.765H110.875C110.355 183.764 109.854 183.574 109.466 183.229C109.078 182.883 108.83 182.408 108.768 181.893L107.82 173.751C108.227 173.673 108.595 173.595 108.729 173.556C109.77 173.273 110.779 173.032 111.622 172.313C112.464 171.595 113.038 170.543 112.563 169.442C112.327 168.896 111.971 168.409 111.523 168.016C111.075 167.624 110.545 167.336 109.972 167.173C109.016 166.888 107.999 166.871 107.034 167.124L106.811 165.184C106.778 164.887 106.808 164.587 106.899 164.303C106.99 164.019 107.139 163.757 107.338 163.535C107.537 163.313 107.78 163.135 108.052 163.012C108.324 162.89 108.619 162.827 108.917 162.826H120.199C120.497 162.827 120.791 162.891 121.063 163.014C121.335 163.136 121.577 163.314 121.776 163.536C121.974 163.759 122.123 164.02 122.214 164.304C122.305 164.588 122.335 164.888 122.302 165.184L122.04 167.396" stroke="black" stroke-width="1.0462" stroke-miterlimit="10"/>
<path d="M121.447 172.454L121.436 172.532" stroke="black" stroke-width="1.0462" stroke-miterlimit="10"/>
<path d="M120.897 177.13V177.099" stroke="black" stroke-width="1.0462" stroke-miterlimit="10"/>
<path d="M121.003 177.133C120.971 177.127 120.939 177.127 120.907 177.133C120.863 177.127 120.817 177.127 120.773 177.133C120.314 177.134 119.873 177.308 119.536 177.62C119.199 177.931 118.992 178.358 118.955 178.815C118.918 179.273 119.054 179.727 119.336 180.089C119.619 180.45 120.026 180.693 120.479 180.768C120.674 180.807 120.875 180.807 121.07 180.768C121.954 180.627 122.76 180.181 123.35 179.508C124.136 178.216 124.681 176.792 124.961 175.306C124.965 175.291 124.965 175.275 124.961 175.26C125.177 174.165 125.259 173.047 125.205 171.932C125.205 171.454 125.145 170.98 125.088 170.516C124.98 169.74 124.625 169.02 124.077 168.461C123.528 167.902 122.814 167.534 122.04 167.412C122.001 167.412 121.955 167.412 121.916 167.391C120.429 167.206 118.344 167.769 117.958 169.447C117.604 170.962 119.247 172.262 120.596 172.378C120.596 172.378 120.95 172.424 121.449 172.456C122.447 172.524 124.107 172.513 125.205 171.932C125.366 171.849 125.518 171.748 125.658 171.631" stroke="black" stroke-width="1.0462" stroke-miterlimit="10"/>
<path d="M122.557 172.535H122.313H120.426H119.594C119.032 172.537 118.492 172.754 118.084 173.142C117.677 173.53 117.433 174.059 117.403 174.62V174.62C117.376 175.166 117.552 175.703 117.897 176.127C118.242 176.55 118.732 176.831 119.272 176.914C121.715 177.307 124.504 177.389 124.982 175.201" stroke="black" stroke-width="1.0462" stroke-miterlimit="10"/>
<path d="M242.445 272.491C242.445 272.491 251.079 280.693 248.385 306.121C248.189 307.936 247.558 309.678 246.545 311.197L245.606 312.613C244.068 314.917 241.748 316.587 239.075 317.314C233.436 318.854 223.205 322.422 216.886 329.184C214.217 332.048 216.203 336.713 220.118 336.713C220.848 336.715 221.568 336.537 222.212 336.193C222.856 335.85 223.405 335.352 223.811 334.745C226.384 330.872 234.176 322.649 252.97 322.822C274.167 323.017 282.706 331.446 285.442 335.078C285.82 335.584 286.311 335.996 286.876 336.28C287.44 336.564 288.063 336.712 288.695 336.713V336.713C289.488 336.712 290.262 336.479 290.924 336.044C291.586 335.608 292.107 334.989 292.422 334.263C292.737 333.536 292.834 332.733 292.699 331.952C292.565 331.171 292.206 330.447 291.665 329.867C283.4 320.886 273.289 317.537 267.71 316.295C264.907 315.691 262.431 314.061 260.768 311.725C259.495 309.923 258.771 307.791 258.683 305.586C258.372 297.703 258.209 278.565 263.551 272.498" stroke="black" stroke-width="1.0462" stroke-miterlimit="10"/>
<path d="M224.497 213.059V213.632C224.497 217.558 221.332 218.234 218.599 218.301L165.708 219.533C163.389 219.59 161.439 217.565 161.389 215.03V214.924C161.389 212.446 163.216 210.375 165.503 210.322C165.503 210.322 195.093 209.487 218.004 208.857C218.443 210.244 219.505 211.313 220.836 212.152C221.939 212.812 223.214 213.127 224.497 213.059V213.059Z" stroke="black" stroke-width="1.0462" stroke-miterlimit="10"/>
<path d="M252.612 157.092C252.614 157.738 252.466 158.376 252.18 158.954L228.525 207.445C228.248 208.008 227.851 208.504 227.361 208.897C226.872 209.29 226.303 209.571 225.693 209.721C224.717 209.972 223.683 209.866 222.777 209.424C222.05 209.066 221.439 208.511 221.012 207.823C220.586 207.134 220.362 206.34 220.366 205.53C220.368 205.331 220.382 205.133 220.408 204.935C220.471 204.496 220.603 204.07 220.798 203.672L244.448 155.174C244.876 154.303 245.585 153.603 246.461 153.188C247.337 152.772 248.328 152.666 249.272 152.885C250.216 153.105 251.058 153.638 251.661 154.397C252.264 155.157 252.591 156.098 252.59 157.068L252.612 157.092Z" stroke="black" stroke-width="1.0462" stroke-miterlimit="10"/>
<path d="M61.113 152.306C61.0847 152.207 61.0458 152.111 61.0139 152.016C60.9821 151.92 60.936 151.811 60.9077 151.704" stroke="black" stroke-width="1.0462" stroke-linecap="round" stroke-linejoin="round"/>
<path d="M61.1108 152.308L61.8365 151.579L63.2242 150.174" stroke="black" stroke-width="1.0462" stroke-linecap="round" stroke-linejoin="round"/>
<path d="M69.2788 154.228C69.2788 154.228 70.2098 157.007 73.7675 157.195" stroke="black" stroke-width="1.0462" stroke-miterlimit="10"/>
<path d="M53.4546 160.739C50.2686 162.349 46.6543 158.866 46.9056 155.995C47.0684 154.027 46.6224 152.667 45.1675 151.241C45.0719 151.145 44.9834 151.046 44.8984 150.95C44.3446 150.348 43.9843 149.593 43.8644 148.783C43.7445 147.973 43.8704 147.146 44.2258 146.409C44.8878 144.869 46.3144 143.966 45.3232 142.306C44.8883 141.588 44.5705 140.805 44.3816 139.987C44.1839 138.902 44.2209 137.788 44.4902 136.719C44.7595 135.649 45.2548 134.65 45.9427 133.789C47.4012 132.019 49.7765 132.507 51.7271 131.888C54.0741 131.141 55.1715 128.617 57.6353 127.841C58.8673 127.456 60.0107 127.629 61.2426 127.909C62.2798 128.153 63.3206 128.425 64.3295 128.744C65.3384 129.063 66.2588 129.335 67.2677 129.034C68.5881 128.649 69.6041 127.434 71.0413 127.424C72.4786 127.413 73.583 128.259 74.2273 129.441C75.2468 131.296 75.2539 133.994 74.2946 135.594C73.3034 137.251 71.2289 137.952 69.4448 138.309C67.165 138.776 64.8074 138.9 62.4993 139.106L61.1576 139.435C60.6473 139.593 60.2205 139.947 59.971 140.42C59.7214 140.892 59.6695 141.445 59.8266 141.955C60.6567 144.812 61.7988 147.569 63.2321 150.175" stroke="black" stroke-width="1.0462" stroke-miterlimit="10"/>
<path d="M63.2241 161.144C63.2241 161.144 70.2475 166.287 74.2512 163.452C78.255 160.616 75.9929 152.304 75.9929 152.304" stroke="black" stroke-width="1.0462" stroke-linecap="round" stroke-linejoin="round"/>
<path d="M112.852 159.275C112.852 159.275 109.868 157.257 111.765 155.197C113.663 153.137 111.135 150.418 111.135 150.418" stroke="black" stroke-width="1.0462" stroke-miterlimit="10"/>
<path d="M115.608 159.626C115.608 159.626 117.583 158.292 116.316 156.925C115.049 155.559 116.737 153.739 116.737 153.739" stroke="black" stroke-width="1.0462" stroke-miterlimit="10"/>
<path d="M129.214 140.396C150.705 140.396 168.126 122.974 168.126 101.484C168.126 79.9936 150.705 62.5723 129.214 62.5723C107.724 62.5723 90.3027 79.9936 90.3027 101.484C90.3027 122.974 107.724 140.396 129.214 140.396Z" stroke="#CCDDE2" stroke-width="1.0462" stroke-miterlimit="10"/>
<path d="M129.216 122.856C141.019 122.856 150.587 113.288 150.587 101.485C150.587 89.6821 141.019 80.114 129.216 80.114C117.413 80.114 107.845 89.6821 107.845 101.485C107.845 113.288 117.413 122.856 129.216 122.856Z" stroke="#CCDDE2" stroke-width="1.0462" stroke-miterlimit="10"/>
<path d="M129.218 105.15C131.242 105.15 132.882 103.509 132.882 101.486C132.882 99.4622 131.242 97.8218 129.218 97.8218C127.195 97.8218 125.554 99.4622 125.554 101.486C125.554 103.509 127.195 105.15 129.218 105.15Z" stroke="#CCDDE2" stroke-width="1.0462" stroke-miterlimit="10"/>
<path d="M136.802 89.2507L131.145 98.3698" stroke="#CCDDE2" stroke-width="1.0462" stroke-miterlimit="10"/>
<path d="M129.219 80.114V83.916" stroke="#CCDDE2" stroke-width="1.0462" stroke-miterlimit="10"/>
<path d="M150.587 101.484H146.983" stroke="#CCDDE2" stroke-width="1.0462" stroke-miterlimit="10"/>
<path d="M129.219 122.86V119.164" stroke="#CCDDE2" stroke-width="1.0462" stroke-miterlimit="10"/>
<path d="M107.84 101.484H111.09" stroke="#CCDDE2" stroke-width="1.0462" stroke-miterlimit="10"/>
<path d="M166.509 166.184C174.505 166.184 180.987 159.702 180.987 151.705C180.987 143.709 174.505 137.227 166.509 137.227C158.513 137.227 152.03 143.709 152.03 151.705C152.03 159.702 158.513 166.184 166.509 166.184Z" fill="#7D63C4"/>
<path d="M171.268 146.867C171.064 146.396 170.79 145.959 170.454 145.571C169.88 144.893 169.079 144.446 168.2 144.316C167.321 144.186 166.425 144.38 165.679 144.863C165.192 145.181 164.786 145.606 164.491 146.107C164.196 146.607 164.021 147.169 163.979 147.748C163.217 147.469 162.385 147.445 161.608 147.68C160.831 147.915 160.152 148.396 159.672 149.051C159.193 149.706 158.939 150.499 158.95 151.311C158.961 152.122 159.235 152.908 159.731 153.55C160.769 154.903 162.532 155.791 164.128 156.308C164.965 156.576 165.828 156.759 166.702 156.853C167.144 156.903 169.668 157.243 169.888 156.853C171.463 154.389 172.582 149.876 171.268 146.867Z" fill="white"/>
<g opacity="0.72">
<path opacity="0.72" d="M202.598 145.711C207.001 145.711 210.57 142.142 210.57 137.739C210.57 133.336 207.001 129.767 202.598 129.767C198.195 129.767 194.626 133.336 194.626 137.739C194.626 142.142 198.195 145.711 202.598 145.711Z" fill="#7D63C4"/>
<path opacity="0.72" d="M206.057 139.152C206.254 138.951 206.419 138.721 206.545 138.469C206.772 138.035 206.833 137.533 206.717 137.057C206.6 136.581 206.314 136.164 205.911 135.885C205.648 135.703 205.347 135.585 205.031 135.539C204.714 135.494 204.392 135.522 204.088 135.623C204.071 135.176 203.909 134.747 203.627 134.4C203.345 134.054 202.957 133.808 202.523 133.701C202.089 133.594 201.632 133.631 201.221 133.807C200.81 133.982 200.467 134.287 200.244 134.674C199.81 135.551 199.642 136.535 199.759 137.506C199.799 137.986 199.886 138.46 200.021 138.922C200.088 139.159 200.442 140.515 200.683 140.557C202.265 140.823 204.8 140.451 206.057 139.152Z" fill="white"/>
</g>
<path d="M191.17 175.386L187.38 183.399C186.006 186.305 187.248 189.774 190.153 191.148L198.166 194.938C201.072 196.312 204.541 195.07 205.916 192.165L209.705 184.151C211.079 181.246 209.838 177.776 206.932 176.402L198.919 172.613C196.013 171.239 192.544 172.48 191.17 175.386Z" fill="#7D63C4"/>
<path d="M207.551 185.552L204.807 191.354C204.231 192.562 203.201 193.494 201.941 193.946C200.681 194.397 199.293 194.332 198.081 193.765L191.121 190.473C189.914 189.896 188.983 188.866 188.532 187.606C188.081 186.346 188.146 184.958 188.714 183.747L188.898 183.357C190.789 181.849 194.056 179.817 195.249 182.582C196.966 186.575 199.2 185.286 202.053 183.616C204.435 182.207 207.296 181.736 207.551 185.552Z" fill="white"/>
<path d="M196.768 179.385C197.951 179.385 198.909 178.426 198.909 177.243C198.909 176.06 197.951 175.101 196.768 175.101C195.585 175.101 194.626 176.06 194.626 177.243C194.626 178.426 195.585 179.385 196.768 179.385Z" fill="white"/>
<path d="M233.307 149.102C233.733 149.878 234.042 150.713 234.224 151.58C234.548 153.165 234.455 154.807 233.954 156.346C233.453 157.884 232.56 159.266 231.364 160.355C230.415 161.194 229.208 161.849 228.249 162.727C227.549 163.331 227.033 164.12 226.762 165.003C226.712 165.305 226.591 165.591 226.408 165.835C225.848 166.437 225.3 165.481 224.815 165.319C224.033 165.064 223.185 165.106 222.432 165.435C220.453 166.263 218.247 166.381 216.191 165.768C214.134 165.156 212.352 163.851 211.148 162.075C209.944 160.299 209.391 158.161 209.583 156.023C209.775 153.886 210.7 151.881 212.202 150.348C213.685 148.836 215.625 147.87 217.512 146.886C219.161 146.011 220.804 145.08 222.595 144.556C226.794 143.3 231.275 145.392 233.307 149.102Z" fill="#7D63C4"/>
<path d="M216.398 160.037C217.513 160.037 218.416 159.133 218.416 158.019C218.416 156.904 217.513 156.001 216.398 156.001C215.284 156.001 214.38 156.904 214.38 158.019C214.38 159.133 215.284 160.037 216.398 160.037Z" fill="white"/>
<path d="M221.836 157.13C222.95 157.13 223.853 156.227 223.853 155.112C223.853 153.998 222.95 153.094 221.836 153.094C220.721 153.094 219.818 153.998 219.818 155.112C219.818 156.227 220.721 157.13 221.836 157.13Z" fill="white"/>
<path d="M226.932 154.404C228.047 154.404 228.95 153.501 228.95 152.386C228.95 151.272 228.047 150.368 226.932 150.368C225.818 150.368 224.915 151.272 224.915 152.386C224.915 153.501 225.818 154.404 226.932 154.404Z" fill="white"/>
<path d="M165.409 87.179C165.409 87.179 178.695 128.271 229.837 126.052C246.829 123.928 267.053 126.052 285.061 149.77C312.436 185.849 301.444 226.043 289.005 251.555" stroke="#CCDDE2" stroke-width="1.0462" stroke-miterlimit="10"/>
<g opacity="0.54">
<path opacity="0.54" d="M239.338 103.318C239.287 103.937 239.192 104.553 239.051 105.158L237.458 112.068C236.969 114.192 236.421 116.416 234.906 117.966C232.074 120.855 227.365 120.193 223.429 119.318L213.765 117.173C211.545 116.681 209.29 116.175 207.301 115.074C205.311 113.973 203.584 112.171 203.123 109.944C202.769 108.302 203.148 106.603 203.509 104.967L204.968 98.3333C205.453 96.1597 205.998 93.8658 207.566 92.2834C210.359 89.4691 215 90.1098 218.859 90.9488L228.757 93.1011C234.725 94.3897 239.812 97.158 239.338 103.318Z" fill="#7D63C4"/>
<path opacity="0.54" d="M226.01 103.502C226.424 103.887 226.729 104.374 226.895 104.914C227.061 105.454 227.081 106.029 226.955 106.58C226.828 107.131 226.558 107.638 226.173 108.052C225.788 108.466 225.301 108.77 224.76 108.936L221.815 109.838L218.869 110.741C218.329 110.906 217.755 110.927 217.204 110.8C216.653 110.673 216.145 110.403 215.732 110.018C215.318 109.632 215.013 109.145 214.848 108.605C214.682 108.064 214.661 107.49 214.788 106.939L215.496 103.937L216.186 100.939C216.312 100.388 216.581 99.8796 216.966 99.4656C217.351 99.0516 217.839 98.7463 218.379 98.5805C218.92 98.4147 219.494 98.3942 220.045 98.5211C220.596 98.648 221.104 98.9178 221.517 99.3034L223.772 101.403L226.01 103.502Z" fill="white"/>
</g>
<path d="M30.6143 336.715H336.3" stroke="black" stroke-width="1.0462" stroke-miterlimit="10"/>
</svg>
