<svg width="354" height="354" viewBox="0 0 354 354" fill="none" xmlns="http://www.w3.org/2000/svg">
<path d="M187.974 88.5249C187.974 88.5249 232.224 64.0211 255.266 94.9925C278.307 125.964 243.853 150.153 274.123 168.377C304.394 186.601 281.015 221.572 308.461 233.191C335.907 244.809 327.758 295.01 295.59 306.593" stroke="#CCDDE2" stroke-width="1.30839" stroke-miterlimit="10"/>
<path d="M61.6598 271.04C61.5748 271.394 61.504 271.72 61.4438 272.07C61.2987 272.799 61.1642 273.539 61.0686 274.29C58.9446 289.947 65.8193 305.651 75.4481 317.669" stroke="#CCDDE2" stroke-width="1.30839" stroke-miterlimit="10"/>
<path d="M215.504 91.7603H80.9807C64.4857 91.7603 51.1138 105.132 51.1138 121.627V248.271C51.1138 264.766 64.4857 278.138 80.9807 278.138H215.504C231.999 278.138 245.371 264.766 245.371 248.271V121.627C245.371 105.132 231.999 91.7603 215.504 91.7603Z" fill="#7D63C4"/>
<path d="M213.526 89.0381H80.1277C62.5378 89.0381 48.2783 103.298 48.2783 120.887V246.288C48.2783 263.878 62.5378 278.138 80.1277 278.138H213.526C231.115 278.138 245.375 263.878 245.375 246.288V120.887C245.375 103.298 231.115 89.0381 213.526 89.0381Z" stroke="black" stroke-width="1.30839" stroke-miterlimit="10"/>
<path d="M211.685 95.4243H84.8006C68.3055 95.4243 54.9336 108.796 54.9336 125.291V244.603C54.9336 261.099 68.3055 274.47 84.8006 274.47H211.685C228.18 274.47 241.552 261.099 241.552 244.603V125.291C241.552 108.796 228.18 95.4243 211.685 95.4243Z" fill="#7D63C4"/>
<path d="M219.504 104.823H180.43C175.12 104.823 170.805 109.46 170.805 115.17V219.554C170.805 225.275 175.12 229.916 180.43 229.916H219.504C224.814 229.916 229.147 225.275 229.147 219.554V115.17C229.147 109.46 224.829 104.823 219.504 104.823ZM224.599 216.648C224.599 221.42 221.009 225.275 216.57 225.275H183.372C178.933 225.275 175.343 221.42 175.343 216.648V118.102C175.343 113.333 178.933 109.475 183.372 109.475H216.563C221.002 109.475 224.591 113.333 224.591 118.102L224.599 216.648Z" fill="#D7E8F0"/>
<path d="M131.422 236.589L74.1558 235.764C73.5395 235.754 72.9525 235.5 72.5238 235.057C72.095 234.614 71.8595 234.019 71.8689 233.403C71.8687 233.191 71.8997 232.98 71.961 232.776C72.1075 232.291 72.4078 231.867 72.8164 231.568C73.2251 231.268 73.72 231.11 74.2266 231.116L131.493 231.959C131.058 232.621 130.814 233.39 130.785 234.182C130.762 235.029 130.983 235.864 131.422 236.589V236.589Z" fill="#7D63C4"/>
<path d="M145.303 235.088C145.157 235.573 144.857 235.998 144.449 236.3C144.042 236.601 143.547 236.762 143.04 236.759L138.906 236.699C139.348 236.007 139.589 235.206 139.602 234.385C139.614 233.564 139.398 232.755 138.977 232.051L143.111 232.111C143.728 232.122 144.314 232.376 144.743 232.819C145.173 233.261 145.409 233.856 145.402 234.472C145.399 234.681 145.366 234.889 145.303 235.088V235.088Z" fill="#D7E8F0"/>
<path d="M145.168 244.31C145.023 244.794 144.724 245.218 144.317 245.518C143.909 245.817 143.415 245.976 142.91 245.97L85.9971 245.138C86.6289 244.391 86.9884 243.451 87.0166 242.472C87.0437 241.794 86.9091 241.12 86.6237 240.504L142.973 241.318C143.589 241.33 144.175 241.585 144.603 242.028C145.032 242.47 145.268 243.064 145.26 243.68C145.26 243.893 145.229 244.105 145.168 244.31V244.31Z" fill="#D7E8F0"/>
<path d="M79.1544 245.035L74.0249 244.968C73.4096 244.96 72.8228 244.708 72.3934 244.267C71.964 243.826 71.727 243.233 71.7346 242.618C71.7355 242.402 71.7677 242.187 71.8301 241.98C71.9734 241.496 72.2715 241.072 72.6788 240.774C73.0861 240.475 73.5801 240.318 74.0851 240.327L78.6553 240.402C78.3917 240.956 78.2424 241.558 78.2163 242.172C78.1769 243.208 78.5097 244.224 79.1544 245.035Z" fill="#7D63C4"/>
<path d="M127.369 255.064L74.2337 254.292C73.619 254.278 73.0347 254.022 72.6069 253.58C72.1791 253.138 71.942 252.546 71.9468 251.931C71.9494 251.722 71.9828 251.515 72.046 251.315C72.1915 250.829 72.4906 250.404 72.8985 250.103C73.3064 249.801 73.801 249.641 74.308 249.644L127.362 250.427C126.928 251.122 126.698 251.926 126.698 252.745C126.698 253.565 126.928 254.369 127.362 255.064H127.369Z" fill="#7D63C4"/>
<path d="M145.391 253.638C145.246 254.124 144.946 254.549 144.536 254.848C144.126 255.147 143.629 255.304 143.122 255.294L134.793 255.167L127.359 255.064C126.924 254.369 126.694 253.565 126.694 252.745C126.694 251.926 126.924 251.122 127.359 250.427L134.92 250.54L143.189 250.657C143.804 250.667 144.389 250.92 144.818 251.36C145.246 251.801 145.483 252.393 145.476 253.007C145.481 253.221 145.452 253.433 145.391 253.638Z" fill="#D7E8F0"/>
<path d="M138.906 236.699C138.386 237.513 137.613 238.134 136.705 238.465C135.797 238.797 134.805 238.82 133.883 238.532C132.961 238.243 132.159 237.659 131.602 236.87C131.044 236.081 130.762 235.13 130.799 234.164C130.819 233.586 130.952 233.017 131.192 232.49C131.432 231.964 131.773 231.49 132.196 231.095C132.619 230.7 133.116 230.393 133.658 230.191C134.2 229.989 134.777 229.895 135.355 229.916C135.934 229.935 136.503 230.068 137.03 230.307C137.557 230.546 138.031 230.887 138.426 231.311C138.821 231.734 139.128 232.231 139.33 232.774C139.532 233.316 139.625 233.893 139.603 234.472C139.573 235.263 139.333 236.032 138.906 236.699V236.699Z" fill="white"/>
<g opacity="0.72">
<path opacity="0.72" d="M137.246 233.994C137.149 234.524 136.903 235.015 136.538 235.41C136.36 235.611 136.165 235.795 135.953 235.959C135.84 236.04 135.245 236.525 135.118 236.465C134.325 236.065 133.32 235.049 133.196 234.068C133.176 233.915 133.176 233.759 133.196 233.605C133.24 233.336 133.381 233.092 133.591 232.919C133.801 232.746 134.067 232.655 134.339 232.663C134.515 232.671 134.687 232.72 134.841 232.805C134.995 232.891 135.127 233.01 135.228 233.155C135.383 232.962 135.596 232.824 135.837 232.763C136.077 232.702 136.331 232.721 136.559 232.817C136.788 232.913 136.979 233.081 137.103 233.295C137.228 233.51 137.279 233.759 137.249 234.005L137.246 233.994Z" fill="white"/>
</g>
<path d="M85.9973 245.138C85.5769 245.641 85.0493 246.044 84.4531 246.318C83.857 246.591 83.2073 246.728 82.5515 246.718C81.8957 246.708 81.2504 246.552 80.6626 246.261C80.0749 245.97 79.5597 245.551 79.1545 245.035C78.5074 244.221 78.1745 243.201 78.2164 242.161C78.2425 241.547 78.3918 240.945 78.6554 240.391C79.0284 239.625 79.6153 238.983 80.3453 238.543C81.0753 238.103 81.9171 237.884 82.7689 237.913C83.5894 237.938 84.3863 238.194 85.0677 238.651C85.7491 239.109 86.2873 239.75 86.6204 240.501C86.9058 241.116 87.0405 241.791 87.0133 242.469C86.9869 243.448 86.6286 244.389 85.9973 245.138Z" fill="white"/>
<g opacity="0.72">
<path opacity="0.72" d="M84.6659 241.998C84.5693 242.528 84.3237 243.019 83.9579 243.414C83.7814 243.617 83.5845 243.8 83.3703 243.963C83.257 244.044 82.6623 244.533 82.5384 244.469C81.7419 244.069 80.7401 243.053 80.6162 242.072C80.5967 241.918 80.5967 241.763 80.6162 241.609C80.6613 241.34 80.8018 241.097 81.0119 240.924C81.222 240.751 81.4875 240.66 81.7596 240.667C81.9355 240.675 82.1072 240.724 82.2613 240.809C82.4154 240.895 82.5478 241.014 82.6481 241.159C82.8032 240.965 83.0174 240.827 83.2581 240.766C83.4988 240.705 83.7528 240.724 83.9816 240.821C84.2104 240.917 84.4014 241.086 84.5256 241.301C84.6497 241.516 84.7002 241.766 84.6695 242.012L84.6659 241.998Z" fill="white"/>
</g>
<path d="M134.792 255.167C134.263 255.968 133.487 256.574 132.582 256.894C131.676 257.214 130.691 257.23 129.776 256.939C128.861 256.648 128.066 256.067 127.512 255.283C126.957 254.5 126.673 253.556 126.703 252.597C126.733 251.829 126.96 251.081 127.362 250.427C127.765 249.782 128.328 249.252 128.996 248.888C129.663 248.524 130.414 248.339 131.174 248.351C131.935 248.362 132.68 248.57 133.336 248.953C133.993 249.337 134.54 249.883 134.923 250.54C135.345 251.257 135.551 252.081 135.518 252.912C135.487 253.716 135.236 254.496 134.792 255.167V255.167Z" fill="white"/>
<g opacity="0.72">
<path opacity="0.72" d="M133.16 252.434C133.065 252.964 132.819 253.456 132.452 253.85C132.275 254.052 132.078 254.236 131.865 254.399C131.751 254.484 131.157 254.969 131.033 254.905C130.236 254.505 129.235 253.489 129.111 252.508C129.089 252.354 129.089 252.198 129.111 252.045C129.146 251.823 129.247 251.617 129.4 251.454C129.554 251.291 129.754 251.177 129.973 251.129C130.192 251.081 130.42 251.1 130.628 251.184C130.836 251.268 131.014 251.412 131.139 251.599C131.295 251.406 131.509 251.269 131.749 251.209C131.989 251.148 132.242 251.168 132.47 251.263C132.699 251.359 132.89 251.526 133.015 251.74C133.14 251.954 133.192 252.202 133.164 252.448L133.16 252.434Z" fill="white"/>
</g>
<path d="M71.4299 115.8L71.529 129.376C71.5535 131.743 72.4923 134.009 74.1491 135.699C75.8058 137.39 78.0521 138.374 80.4179 138.446L93.8699 138.68C95.0238 138.694 96.1689 138.478 97.2376 138.042C98.3063 137.607 99.2769 136.962 100.092 136.145C100.907 135.328 101.55 134.357 101.983 133.287C102.417 132.217 102.631 131.072 102.614 129.918L102.511 116.346C102.49 113.976 101.553 111.707 99.8959 110.014C98.2387 108.32 95.9904 107.334 93.6221 107.262L80.1701 107.025C79.0154 107.01 77.8695 107.228 76.8002 107.664C75.731 108.101 74.7602 108.747 73.9452 109.565C73.1303 110.384 72.4878 111.357 72.0557 112.428C71.6237 113.499 71.4109 114.646 71.4299 115.8V115.8Z" fill="white"/>
<path d="M73.4976 119.206L73.5684 129.033C73.5902 131.089 74.4063 133.058 75.8459 134.526C77.2855 135.995 79.2371 136.85 81.2926 136.913L92.9746 137.115C93.9778 137.129 94.9736 136.943 95.9033 136.566C96.833 136.189 97.6775 135.629 98.3869 134.919C99.0963 134.21 99.6561 133.366 100.033 132.436C100.41 131.506 100.597 130.51 100.582 129.507V128.842C98.9431 125.489 95.75 120.473 92.3445 123.472C87.4345 127.787 85.1866 124.502 82.3263 120.268C79.9156 116.724 76.2835 114.137 73.4976 119.206Z" fill="#7D63C4"/>
<path d="M95.4554 117.852C96.9373 116.867 97.3194 114.836 96.3089 113.315C95.2983 111.794 93.2778 111.359 91.796 112.344C90.3141 113.329 89.932 115.36 90.9425 116.881C91.953 118.402 93.9735 118.836 95.4554 117.852Z" fill="#7D63C4"/>
<path d="M145.986 134.07C143.886 134.068 141.836 134.717 140.119 135.927C138.402 137.137 137.103 138.849 136.398 140.828C135.694 142.807 135.62 144.956 136.186 146.979C136.753 149.001 137.932 150.799 139.561 152.124L116.431 193.613C116.267 193.587 116.101 193.571 115.935 193.564C115.51 193.57 115.089 193.635 114.682 193.758L97.3502 172.235C98.1171 171.166 98.5487 169.893 98.59 168.578C98.6314 167.263 98.2807 165.966 97.5825 164.851C96.8843 163.736 95.8702 162.854 94.6692 162.317C93.4682 161.78 92.1346 161.612 90.8381 161.836C89.5416 162.059 88.3408 162.663 87.3885 163.57C86.4362 164.478 85.7754 165.648 85.4902 166.932C85.2049 168.217 85.3082 169.557 85.7869 170.782C86.2655 172.008 87.0979 173.063 88.178 173.814L76.0394 208.364C74.9775 208.426 73.97 208.854 73.1881 209.576C72.4062 210.297 71.8982 211.266 71.7506 212.32C71.603 213.373 71.8248 214.445 72.3783 215.353C72.9318 216.262 73.7829 216.95 74.7868 217.302C75.7906 217.653 76.8853 217.646 77.8846 217.282C78.8839 216.918 79.7261 216.218 80.268 215.303C80.8099 214.388 81.0181 213.313 80.857 212.262C80.696 211.21 80.1757 210.247 79.3847 209.536L91.5269 174.986C91.6755 174.986 91.8207 175.007 91.9694 175.007C92.8738 175.007 93.7689 174.823 94.5996 174.465L111.917 195.985C111.54 196.68 111.35 197.461 111.366 198.251C111.382 199.042 111.604 199.814 112.009 200.493C112.415 201.172 112.99 201.733 113.678 202.122C114.367 202.511 115.145 202.714 115.935 202.711C116.794 202.715 117.637 202.477 118.367 202.023C119.096 201.569 119.683 200.919 120.058 200.146C120.434 199.374 120.584 198.511 120.491 197.657C120.398 196.803 120.065 195.993 119.532 195.319L142.662 153.845C144.059 154.328 145.544 154.501 147.014 154.352C148.485 154.203 149.905 153.735 151.176 152.981C152.447 152.227 153.538 151.205 154.374 149.986C155.209 148.767 155.769 147.38 156.014 145.923C156.259 144.465 156.183 142.972 155.792 141.547C155.401 140.121 154.704 138.799 153.749 137.67C152.795 136.542 151.606 135.636 150.265 135.014C148.924 134.392 147.464 134.07 145.986 134.07V134.07Z" fill="white"/>
<path d="M302.925 250.321C302.9 250.211 302.875 250.105 302.84 249.995C301.696 245.904 299.341 242.255 296.086 239.527C296.047 239.506 296.001 239.467 295.962 239.442C295.661 239.226 295.346 239.017 295.031 238.812C294.606 238.547 294.167 238.292 293.732 238.037C293.695 238.011 293.654 237.991 293.611 237.977C291.926 237.191 290.322 236.243 288.822 235.145L288.747 235.095C286.722 233.75 284.892 232.185 283.628 230.015C283.6 229.969 283.576 229.921 283.558 229.87C283.533 229.87 283.533 229.831 283.522 229.82C282.358 228.05 281.653 226.111 281.798 224.096V224.036C281.444 220.751 281.798 217.292 281.664 213.958C281.664 213.752 281.664 213.547 281.628 213.338C281.593 213.129 281.593 212.878 281.579 212.673C281.592 212.605 281.592 212.535 281.579 212.467C281.531 211.808 281.445 211.152 281.324 210.503C280.173 204.269 276.17 198.714 271.27 194.799C271.159 194.705 271.041 194.619 270.916 194.544C265.422 190.516 259.408 188.951 255.468 188.346C255.431 188.341 255.394 188.341 255.358 188.346C253.878 188.236 252.473 188.261 251.174 187.967C251.149 187.967 251.124 187.967 251.114 187.967C249.66 187.685 248.362 186.873 247.474 185.687C247.139 185.256 246.839 184.798 246.579 184.317C246.542 184.29 246.516 184.251 246.504 184.208C245.484 182.62 244.811 180.834 244.529 178.968C244.494 178.788 244.444 178.614 244.419 178.434C243.57 174.398 243.545 170.009 243.524 166.38C243.195 160.79 240.709 153.587 236.391 148.457C236.391 148.457 236.391 148.432 236.366 148.432C235.114 147.18 233.703 146.096 232.171 145.207C228.295 143.037 223.847 142.11 219.427 142.552C219.427 142.552 219.427 142.552 219.402 142.552C219.395 142.55 219.388 142.55 219.381 142.552C216.662 142.782 214.028 143.61 211.667 144.977C210.8 145.476 209.978 146.052 209.214 146.698C204.612 150.648 201.975 156.822 201.246 162.911C201.185 163.382 201.15 163.845 201.125 164.327C201.113 164.383 201.113 164.441 201.125 164.497C200.551 165.279 200.211 166.208 200.145 167.177C200.079 168.251 200.338 169.319 200.887 170.245C201.436 171.17 202.251 171.909 203.224 172.366V172.462C203.224 172.777 203.224 173.106 203.224 173.421C203.295 175.575 203.765 177.697 204.609 179.68C206.025 183.025 208.549 186.845 212.828 187.45C213.589 187.559 214.355 187.628 215.122 187.659L217.147 196.318L218.882 203.823C226.447 199.518 235.81 198.219 243.8 200.732H243.825C247.565 201.865 250.963 203.916 253.708 206.697C262.587 213.936 272.58 248.391 273.178 250.526C273.181 250.551 273.189 250.575 273.203 250.597C273.203 250.597 273.203 250.597 273.203 250.621C273.203 250.646 273.203 250.657 273.228 250.682C273.254 250.782 273.29 250.88 273.338 250.972C273.373 251.082 273.412 251.191 273.458 251.301L273.713 251.956C275.483 256.526 281.196 271.426 282.467 275.104C283.986 279.448 285.172 279.788 285.172 279.788C285.237 279.773 285.299 279.748 285.356 279.713L285.597 279.618C289.431 278.064 292.986 275.898 296.125 273.203C296.149 273.203 296.149 273.203 296.149 273.178C299.055 270.225 301.162 266.581 302.274 262.59C303.5 258.617 303.723 254.402 302.925 250.321V250.321Z" fill="white"/>
<path d="M205.111 161.505C205.111 161.505 206.035 146.029 220.489 142.389C234.942 138.75 243.559 155.551 244.207 166.323C244.854 177.096 244.207 184.533 251.803 187.917C251.803 187.917 273.751 187.652 281.83 207.823C281.83 207.823 282.924 217.699 282.478 224.057C282.032 230.415 289.965 235.991 294.287 237.955C298.609 239.92 306.125 247.903 304.082 260.941C302.04 273.978 285.851 279.777 285.851 279.777C285.851 279.777 284.658 279.423 283.143 275.086C281.628 270.75 273.872 250.632 273.872 250.632C273.872 250.632 263.539 214.17 254.366 206.708C249.318 202.594 243.906 200.732 240.341 198.566C236.585 196.282 234.78 193.766 233.526 192.151C231.08 189.004 226.744 184.25 229.88 173.035C233.017 161.821 229.855 167.474 226.903 165.895C226.903 165.895 223.243 160.231 217.72 164.238C212.198 168.246 213.543 158.489 213.543 158.489L211.118 161.753C211.118 161.753 207.316 162.507 205.111 161.505Z" fill="#7D63C4"/>
<path d="M169.007 182.597C169.163 182.377 169.361 182.147 169.527 181.917C169.694 181.687 169.902 181.467 170.097 181.248C170.73 180.566 171.416 179.934 172.147 179.358C172.377 179.173 172.607 179.004 172.837 178.837L169.007 182.597Z" fill="#7D63C4"/>
<path d="M59.8045 338.778H48.4977C46.7631 338.778 44.9825 338.778 43.3824 338.07C41.7823 337.362 40.5504 336.095 39.3787 334.834C31.2083 326.211 25.8736 319.931 17.6997 311.283L20.4397 308.451C21.9413 307.186 23.8567 306.519 25.8194 306.578C27.782 306.636 29.6541 307.417 31.0774 308.769L42.6567 320.143L59.8045 338.778Z" fill="#7D63C4"/>
<path d="M219.611 292.953C213.987 294.168 208.336 295.324 202.658 296.422C195.962 297.72 189.265 298.99 182.565 300.231L176.316 292.588L166.05 303.236C147.628 306.54 129.171 309.637 110.678 312.525L110.763 312.44L159.108 263.656C162.413 260.319 166.574 257.959 171.134 256.838C175.694 255.717 180.476 255.877 184.95 257.301L203.992 263.376C207.139 274.192 212.453 284.255 219.611 292.953V292.953Z" fill="white"/>
<path d="M205.476 225.594C203.086 233.867 202.527 242.671 203.511 251.461C203.747 253.714 204.101 255.956 204.573 258.187C205.009 260.417 205.568 262.612 206.198 264.806C209.057 274.62 213.634 283.849 219.717 292.064C219.477 292.114 219.247 292.174 219.038 292.22C212.174 283.69 207.062 273.887 203.996 263.376C203.387 261.252 202.856 259.128 202.432 257.004C202.007 254.88 201.653 252.689 201.412 250.519C200.467 242.041 201.012 233.552 203.317 225.583C205.01 219.712 208.058 214.321 212.216 209.844C213.253 208.719 214.38 207.679 215.586 206.736L215.646 206.69L215.841 206.545L215.926 206.471C217.064 205.606 218.26 204.821 219.505 204.12C222.226 202.57 225.153 201.414 228.199 200.686C226.143 201.383 224.158 202.273 222.27 203.345C220.977 204.075 219.736 204.893 218.556 205.795L218.471 205.865L218.277 206.01H218.255L218.195 206.056C216.945 207.031 215.777 208.106 214.701 209.271C210.395 213.917 207.235 219.508 205.476 225.594V225.594Z" fill="#2E2E2E"/>
<path d="M244.122 265.613C244.122 265.613 253.97 278.127 262.176 293.07C252.377 289.105 232.51 290.592 224.545 291.42C223.488 291.471 222.434 291.589 221.391 291.774C221.326 291.775 221.26 291.784 221.197 291.799C221.173 291.801 221.149 291.801 221.126 291.799C220.616 291.898 220.142 291.983 219.71 292.078C213.627 283.864 209.049 274.635 206.191 264.82C205.56 262.626 205.001 260.431 204.566 258.201C204.13 255.97 203.752 253.723 203.504 251.475C202.52 242.685 203.079 233.881 205.468 225.608C207.232 219.52 210.396 213.93 214.708 209.285C215.783 208.12 216.952 207.045 218.202 206.071L218.262 206.025H218.283L218.478 205.879L218.563 205.809C219.743 204.907 220.983 204.089 222.276 203.359C224.164 202.287 226.15 201.397 228.206 200.7C233.615 199.391 239.3 199.43 244.43 201.054H244.454C247.474 202.548 250.993 204.294 254.338 207.023C259.057 211.848 261.553 218.351 263.932 224.68C267.217 233.412 270.511 242.135 273.815 250.848C273.817 250.875 273.825 250.9 273.84 250.922C273.84 250.922 273.84 250.922 273.84 250.947C273.84 250.972 273.84 250.983 273.865 251.007C273.89 251.108 273.927 251.205 273.974 251.298C274.008 251.41 274.049 251.519 274.095 251.627C252.246 247.06 244.122 265.613 244.122 265.613Z" fill="#2E2E2E"/>
<path d="M215.586 206.736C214.38 207.674 213.251 208.709 212.212 209.83C208.055 214.307 205.006 219.698 203.313 225.569C201.008 233.537 200.463 242.026 201.408 250.505C201.129 250.66 200.838 250.795 200.548 250.94C194.459 253.91 187.73 256.094 180.89 256.045C177.14 256.003 173.442 255.154 170.049 253.553C166.657 251.952 163.65 249.639 161.233 246.77C157.413 242.246 154.999 236.777 153.215 231.194C151.335 225.3 149.905 219.381 147.576 213.646C146.085 209.993 144.595 205.894 141.381 203.324C139.731 202.014 137.667 201.554 136.032 200.244C134.294 198.848 133.036 196.944 132.431 194.799C132.164 193.875 131.993 192.926 131.922 191.967V191.967C131.617 188.183 132.63 184.229 133.872 180.724L127.532 176.455C125.808 175.29 125.054 172.77 126.074 170.961C126.366 170.444 126.766 169.997 127.248 169.649C127.729 169.302 128.28 169.064 128.863 168.95C129.404 168.847 129.961 168.855 130.499 168.974C131.037 169.092 131.545 169.319 131.992 169.64L145.09 179.05C145.09 179.05 146.099 175.789 149.19 176.795C152.078 177.74 162.362 181.779 162.008 194.247C161.959 196.147 162.461 198.021 163.452 199.642L175.75 219.99C176.622 221.429 177.785 222.67 179.166 223.632C180.547 224.594 182.114 225.256 183.766 225.575C185.418 225.894 187.119 225.863 188.758 225.484C190.398 225.105 191.939 224.386 193.284 223.374L214.811 207.32L215.586 206.736Z" fill="white"/>
<path d="M219.615 212.449L205.101 248.345L201.366 250.09L195.143 252.99C200.127 232.603 193.288 223.098 193.288 223.098L211.31 209.646C211.575 209.745 211.841 209.83 212.12 209.925C215.83 211.15 219.615 212.449 219.615 212.449Z" fill="#2E2E2E"/>
<path d="M227.215 290.921C220.896 292.486 225.99 291.3 219.636 292.67" stroke="black" stroke-width="1.30839" stroke-miterlimit="10"/>
<path d="M288.75 290.075C288.071 288.28 287.391 286.485 286.726 284.691L286.651 284.506C279.099 264.446 271.537 244.397 263.963 224.358C261.584 218.039 259.089 211.526 254.37 206.701C244.536 196.661 227.183 197.617 215.965 206.18L215.88 206.251L215.805 206.301C214.529 207.29 213.336 208.383 212.24 209.568C208.082 214.047 205.034 219.439 203.341 225.311C200.442 235.315 200.321 246.143 202.456 256.732C202.877 258.877 203.412 260.997 204.017 263.104C207.166 273.919 212.481 283.982 219.639 292.68C214.01 293.891 208.359 295.047 202.686 296.15C172.126 302.073 141.465 307.433 110.703 312.228C92.1955 315.127 72.5874 318.246 54.0307 320.724L46.9507 321.599C46.1753 321.696 45.3879 321.62 44.6457 321.375C43.9036 321.13 43.2253 320.722 42.6603 320.183V320.183L31.0774 308.787C29.6541 307.435 27.782 306.654 25.8194 306.595C23.8567 306.537 21.9413 307.204 20.4397 308.469L17.6997 311.301C25.8736 319.949 31.2083 326.229 39.3822 334.877C40.5716 336.137 41.7965 337.422 43.3859 338.113C44.9754 338.803 46.7666 338.821 48.5012 338.821H58.6398C67.2137 338.821 75.7923 338.821 84.3756 338.821L258.165 338.856C265.284 338.856 272.643 338.81 279.171 335.96C282.321 334.568 285.154 332.551 287.501 330.031" stroke="black" stroke-width="1.30839" stroke-miterlimit="10"/>
<path d="M230.1 244.77L290.673 334.728C291.518 335.982 292.657 337.009 293.992 337.719C295.326 338.43 296.815 338.802 298.326 338.803H324.703C325.736 338.803 326.726 338.393 327.457 337.662C328.187 336.932 328.597 335.942 328.597 334.909C328.597 333.876 328.187 332.886 327.457 332.155C326.726 331.425 325.736 331.015 324.703 331.015H312.263C310.254 331.015 308.291 330.415 306.625 329.292C304.959 328.168 303.667 326.573 302.914 324.71L286.032 282.995" stroke="black" stroke-width="1.30839" stroke-miterlimit="10"/>
<path d="M110.699 312.228L110.784 312.143L159.134 263.376C162.437 260.039 166.598 257.678 171.158 256.554C175.717 255.43 180.499 255.585 184.976 257.004L204.014 263.082" stroke="black" stroke-width="1.30839" stroke-miterlimit="10"/>
<path d="M288.917 290.135L288.747 290.075" stroke="black" stroke-width="1.30839" stroke-miterlimit="10"/>
<path d="M182.66 300.029L176.345 292.305L165.969 303.045" stroke="black" stroke-width="1.30839" stroke-miterlimit="10"/>
<path d="M255.255 207.839V207.83" stroke="black" stroke-width="1.30839" stroke-miterlimit="10"/>
<path d="M297.147 331.804C298.736 331.745 300.327 331.796 301.909 331.957C303.201 332.088 304.55 332.165 305.771 332.767C306.787 333.27 307.845 334.477 307.792 335.953C307.697 338.835 304.677 338.814 303.024 338.814" stroke="black" stroke-width="1.30839" stroke-miterlimit="10"/>
<path d="M297.781 338.803H303.02H303.095H319.135" stroke="black" stroke-width="1.30839" stroke-miterlimit="10"/>
<path d="M201.426 250.225C201.426 250.225 201.39 250.225 201.376 250.25C201.111 250.395 200.842 250.526 200.565 250.66C198.799 251.53 196.989 252.307 195.142 252.99C190.583 254.7 185.768 255.822 180.908 255.765C177.157 255.723 173.458 254.873 170.065 253.273C166.672 251.672 163.664 249.359 161.247 246.49C157.427 241.966 155.016 236.497 153.232 230.914C151.352 225.02 149.922 219.101 147.593 213.367C146.102 209.717 144.609 205.617 141.398 203.044C139.748 201.734 137.684 201.274 136.049 199.964C134.312 198.567 133.052 196.664 132.445 194.52C132.181 193.595 132.011 192.646 131.939 191.688V191.688C131.635 187.903 132.647 183.953 133.889 180.448L127.546 176.179C125.825 175.014 125.068 172.494 126.091 170.685C126.383 170.168 126.783 169.72 127.265 169.373C127.747 169.026 128.298 168.788 128.88 168.674C129.422 168.571 129.978 168.579 130.516 168.698C131.054 168.816 131.562 169.043 132.01 169.364L145.108 178.774C145.108 178.774 146.117 175.513 149.207 176.519C152.092 177.464 162.376 181.503 162.025 193.971C161.976 195.871 162.478 197.744 163.47 199.366L175.764 219.717C176.636 221.154 177.799 222.393 179.179 223.353C180.558 224.314 182.124 224.974 183.774 225.293C185.425 225.611 187.124 225.58 188.761 225.202C190.399 224.824 191.94 224.108 193.284 223.098L211.306 209.646L214.81 207.041L215.66 206.41L215.855 206.265L215.94 206.194" stroke="black" stroke-width="1.30839" stroke-miterlimit="10"/>
<path d="M145.14 178.742C145.14 178.742 143.097 183.715 150.142 187.029" stroke="black" stroke-width="1.30839" stroke-miterlimit="10"/>
<path d="M132.767 184.19C132.767 184.19 132.059 190.208 140.056 192.456C142.888 193.252 145.182 189.978 143.458 187.599L143.373 187.489" stroke="black" stroke-width="1.30839" stroke-miterlimit="10"/>
<path d="M131.922 191.62C131.922 191.62 134.591 196.849 139.002 196.268C142.896 195.755 141.48 191.949 141.48 191.949" stroke="black" stroke-width="1.30839" stroke-miterlimit="10"/>
<path d="M133.897 180.416L138.545 183.549" stroke="black" stroke-width="1.30839" stroke-miterlimit="10"/>
<path d="M284.97 280.081C293.926 277.292 300.259 271.702 302.956 262.594C305.541 253.864 303.859 243.938 295.696 238.819C291.628 236.295 286.825 234.323 284.301 230.001C280.856 224.089 283.178 216.878 281.989 210.481C280.753 203.84 276.286 197.957 270.93 194.013C266.96 191.105 262.344 189.203 257.478 188.47C253.885 187.928 250.614 188.824 248.157 185.638C244.263 180.607 244.235 172.388 244.203 166.331C244.182 161.679 243.084 157.049 240.691 153.059L240.638 152.971C238.739 149.755 236.061 147.069 232.85 145.161C226.832 141.678 218.389 141.356 212.318 144.938C211.452 145.456 210.632 146.048 209.868 146.708C204.258 151.512 201.574 159.629 201.705 166.858" stroke="black" stroke-width="1.30839" stroke-miterlimit="10"/>
<path d="M213.108 158.022C212.796 160.146 211.501 162.114 209.214 162.706C206.615 163.364 205.238 165.892 204.509 168.433C203.471 172.16 203.739 176.13 205.27 179.683C206.686 183.025 209.217 186.848 213.494 187.471C221.321 188.587 225.211 185.287 225.211 185.287" stroke="black" stroke-width="1.30839" stroke-miterlimit="10"/>
<path d="M219.629 169.396C220.372 169.396 220.974 168.794 220.974 168.051C220.974 167.308 220.372 166.706 219.629 166.706C218.886 166.706 218.284 167.308 218.284 168.051C218.284 168.794 218.886 169.396 219.629 169.396Z" fill="black"/>
<path d="M207.812 168.508C208.555 168.508 209.157 167.905 209.157 167.162C209.157 166.419 208.555 165.817 207.812 165.817C207.069 165.817 206.467 166.419 206.467 167.162C206.467 167.905 207.069 168.508 207.812 168.508Z" fill="black"/>
<path d="M213.108 158.022C212.807 159.301 212.853 160.636 213.239 161.891C213.3 162.096 213.378 162.295 213.473 162.486C214.404 164.681 216.574 166.426 220.418 166.21C228.787 165.746 231.771 165.201 231.091 169.06C230.808 170.416 230.402 171.743 229.877 173.025C228.957 175.46 228.316 179.659 229.261 184.218V184.243C230.351 189.578 236.649 197.999 245.365 201.03" stroke="black" stroke-width="1.30839" stroke-miterlimit="10"/>
<path d="M213.844 168.377C213.844 168.377 212.428 173.538 212.573 174.299C212.719 175.06 214.524 174.473 214.524 174.473" stroke="black" stroke-width="1.30839" stroke-miterlimit="10"/>
<path d="M214.818 179.198C217.519 180.657 220.648 179.736 221.873 177.297" stroke="black" stroke-width="1.30839" stroke-miterlimit="10"/>
<path d="M226.246 173.406C228.569 170.945 228.409 167.021 225.888 164.642C223.367 162.262 219.441 162.328 217.118 164.789C214.794 167.25 214.955 171.174 217.475 173.554C219.996 175.933 223.923 175.867 226.246 173.406Z" stroke="black" stroke-width="1.30839" stroke-miterlimit="10"/>
<path d="M210.571 171.97C212.894 169.509 212.734 165.585 210.214 163.205C207.693 160.826 203.766 160.892 201.443 163.353C199.12 165.814 199.28 169.738 201.801 172.117C204.322 174.497 208.248 174.431 210.571 171.97Z" stroke="black" stroke-width="1.30839" stroke-miterlimit="10"/>
<path d="M205.876 163.353C206.007 163.353 206.141 163.353 206.276 163.371C207.425 163.48 208.488 164.031 209.239 164.908C209.991 165.785 210.373 166.919 210.304 168.072C210.242 169.132 209.774 170.127 208.999 170.852C208.223 171.576 207.199 171.975 206.138 171.966C206.003 171.966 205.868 171.959 205.734 171.945C204.585 171.837 203.522 171.287 202.771 170.41C202.019 169.534 201.637 168.4 201.706 167.247C201.767 166.187 202.235 165.191 203.011 164.466C203.788 163.741 204.813 163.343 205.876 163.353V163.353ZM205.876 162.444C204.585 162.437 203.34 162.924 202.396 163.804C201.452 164.685 200.88 165.892 200.796 167.18C200.713 168.57 201.173 169.938 202.079 170.994C202.985 172.051 204.267 172.714 205.653 172.844C205.814 172.861 205.976 172.87 206.138 172.869C207.425 172.875 208.666 172.39 209.609 171.514C210.552 170.637 211.126 169.434 211.214 168.15C211.297 166.76 210.837 165.393 209.931 164.336C209.025 163.279 207.743 162.616 206.357 162.486C206.197 162.469 206.036 162.461 205.876 162.461V162.444Z" fill="white"/>
<path d="M215.487 168.525L212.198 168.224" stroke="black" stroke-width="1.30839" stroke-miterlimit="10"/>
<path d="M221.547 164.66C221.684 164.66 221.821 164.667 221.958 164.681C223.141 164.795 224.234 165.363 225.008 166.265C225.782 167.167 226.177 168.333 226.11 169.52C226.044 170.611 225.561 171.636 224.762 172.382C223.962 173.127 222.906 173.537 221.813 173.527C221.678 173.527 221.537 173.527 221.402 173.51C220.218 173.395 219.125 172.827 218.351 171.924C217.577 171.022 217.182 169.854 217.25 168.667C217.316 167.575 217.799 166.551 218.598 165.805C219.398 165.06 220.454 164.649 221.547 164.66V164.66ZM221.547 163.75C220.225 163.743 218.95 164.242 217.983 165.144C217.015 166.046 216.429 167.283 216.343 168.603C216.255 170.028 216.725 171.431 217.654 172.515C218.582 173.599 219.896 174.28 221.317 174.412C221.482 174.429 221.647 174.438 221.813 174.437C223.135 174.443 224.41 173.945 225.377 173.043C226.345 172.141 226.931 170.903 227.017 169.584C227.105 168.162 226.637 166.761 225.713 165.677C224.788 164.594 223.479 163.911 222.061 163.775C221.896 163.758 221.73 163.749 221.565 163.75H221.547Z" fill="white"/>
<path d="M209.923 171.358C211.916 169.246 211.778 165.88 209.616 163.839C207.454 161.798 204.085 161.854 202.092 163.965C200.099 166.077 200.236 169.443 202.399 171.484C204.561 173.525 207.93 173.469 209.923 171.358Z" fill="#7D63C4"/>
<path d="M225.619 172.807C227.622 170.686 227.484 167.304 225.312 165.253C223.139 163.203 219.755 163.26 217.753 165.381C215.75 167.502 215.888 170.884 218.06 172.935C220.233 174.985 223.617 174.928 225.619 172.807Z" fill="#7D63C4"/>
<path d="M219.632 204.244L217.799 196.325L215.809 187.79" stroke="black" stroke-width="1.30839" stroke-miterlimit="10"/>
<path d="M336.3 338.789H22.21" stroke="black" stroke-width="1.30839" stroke-miterlimit="10"/>
</svg>
