<svg width="354" height="354" viewBox="0 0 354 354" fill="none" xmlns="http://www.w3.org/2000/svg">
<path d="M112.342 232.415C116.384 223.211 118.937 212.591 119.178 200.276C120.346 140.039 188.455 93.5552 264.01 144.648C339.564 195.741 272.789 336.3 272.789 336.3" stroke="#CCDDE2" stroke-width="1.13784" stroke-miterlimit="10"/>
<path d="M59.5182 336.3C56.1799 333.677 30.7309 308.794 46.0166 294.553C52.5479 288.475 66.6052 281.377 80.6874 270.555" stroke="#CCDDE2" stroke-width="1.13784" stroke-miterlimit="10"/>
<path d="M241.626 185.319C241.901 186.744 242.621 188.046 243.683 189.036V189.036" stroke="#CCDDE2" stroke-width="1.13784" stroke-miterlimit="10"/>
<path d="M182.31 212.669C181.786 212.807 181.343 212.906 180.993 212.988C180.731 213.034 180.515 213.08 180.366 213.101H180.335L180.129 213.136C180.129 213.136 180.108 213.112 180.094 213.112C176.554 210.513 177.641 205.678 177.641 205.678C188.225 207.345 190.42 198.771 190.42 198.771C190.282 194.661 189.5 192.728 187.694 191.617C185.807 190.434 182.798 190.13 178.2 189.139L177.439 188.969C170.6 187.415 167.41 180.395 166.15 176.501C165.856 175.638 165.62 174.757 165.442 173.864C157.696 176.773 152.846 180.894 150.053 183.984C148.949 162.075 170.939 165.222 170.939 165.222C174.64 165.276 178.317 165.813 181.878 166.822C182.685 167.176 183.457 167.53 184.193 167.884C184.547 168.065 184.922 168.26 185.255 168.462C185.588 168.663 185.963 168.862 186.289 169.063C186.526 169.201 186.767 169.35 186.997 169.506C191.834 172.576 195.701 176.956 198.148 182.137C198.183 182.207 198.213 182.279 198.24 182.352C198.351 182.592 198.449 182.838 198.534 183.089C203.511 204.867 188.154 211.101 182.31 212.669Z" fill="#7D63C4"/>
<path d="M182.31 212.669C180.766 210.103 181.482 207.005 181.482 207.005C192.056 208.676 194.257 200.102 194.257 200.102C194.031 193.797 192.328 192.615 187.694 191.606C185.977 191.22 183.868 190.866 181.276 190.289C180.2 190.047 179.164 189.653 178.2 189.117C171.159 185.259 169.261 175.173 169.261 175.173C168.171 175.58 167.137 176.023 166.15 176.48C165.856 175.617 165.62 174.736 165.442 173.842C157.696 176.752 152.846 180.873 150.053 183.963C148.949 162.054 170.939 165.201 170.939 165.201C174.64 165.254 178.317 165.792 181.878 166.801C182.685 167.155 183.457 167.509 184.193 167.863C184.547 168.044 184.922 168.238 185.255 168.44C185.588 168.642 185.963 168.84 186.289 169.042C186.526 169.18 186.767 169.329 186.997 169.485C191.834 172.555 195.701 176.935 198.148 182.115C198.183 182.185 198.213 182.258 198.24 182.331C198.351 182.571 198.449 182.817 198.534 183.068C203.511 204.867 188.154 211.101 182.31 212.669Z" fill="#7D63C4"/>
<path d="M219.42 309.633C221.055 320.31 223.055 330.813 225.144 336.3H131.26C119.956 304.206 125.316 269.146 125.316 269.146L108.643 269.67C118.671 252.076 115.103 237.201 113.411 232.238C126.509 230.011 139.607 228.263 152.843 228.114C152.489 235.69 160.758 244.398 172.685 242.108C177.52 241.187 183.414 239.276 183.542 230.804L186.654 231.35C190.958 232.058 194.852 232.815 198.544 233.668C208.102 235.87 216.315 238.624 226.549 242.108C212.389 252.59 219.427 276.8 219.427 276.8L219.781 277.607L215.26 276.8C215.26 276.8 216.935 293.406 219.42 309.633Z" fill="#353642"/>
<path d="M122.013 76.3119C131.374 76.3119 138.963 68.7233 138.963 59.3624C138.963 50.0014 131.374 42.4128 122.013 42.4128C112.653 42.4128 105.064 50.0014 105.064 59.3624C105.064 68.7233 112.653 76.3119 122.013 76.3119Z" fill="#7D63C4"/>
<path d="M127.585 53.7055C127.347 53.1537 127.026 52.6416 126.633 52.1868C125.963 51.3901 125.026 50.8656 123.996 50.7117C122.967 50.5579 121.917 50.7853 121.043 51.3513C120.472 51.7205 119.995 52.2175 119.65 52.8031C119.305 53.3887 119.101 54.0467 119.054 54.725C118.162 54.4026 117.191 54.3782 116.284 54.6553C115.378 54.9325 114.586 55.4963 114.027 56.2621C113.468 57.0278 113.173 57.9542 113.186 58.902C113.199 59.8498 113.519 60.7678 114.098 61.5182C115.312 63.1006 117.376 64.1414 119.245 64.7467C120.226 65.0589 121.235 65.2735 122.258 65.3874C122.774 65.4441 125.73 65.8406 126.006 65.3874C127.812 62.5094 129.122 57.2242 127.585 53.7055Z" fill="white"/>
<path d="M93.495 53.8541C92.3834 53.7302 91.2577 53.6523 90.1355 53.5922C88.9319 53.6523 87.7283 53.7408 86.5247 53.8895C82.7233 54.3137 78.9999 55.2669 75.4622 56.7215C73.8777 57.3733 72.3502 58.156 70.8956 59.0615C69.8462 59.6921 68.8408 60.3935 67.8866 61.1607C67.1822 60.1506 66.6167 59.0504 66.2051 57.8897C65.5047 55.9311 65.2474 53.8415 65.4519 51.7715C65.6563 49.7014 66.3174 47.7025 67.3874 45.9188C68.4575 44.135 69.9099 42.6108 71.64 41.4559C73.37 40.3011 75.3348 39.5444 77.3925 39.2404C79.4503 38.9364 81.5499 39.0926 83.54 39.6977C85.5301 40.3029 87.3612 41.342 88.9014 42.7401C90.4416 44.1382 91.6524 45.8605 92.4468 47.783C93.2411 49.7054 93.5991 51.7802 93.495 53.8577V53.8541Z" fill="#7D63C4"/>
<path d="M86.5245 53.8895C82.7231 54.3137 78.9996 55.2669 75.462 56.7215C75.2566 56.1764 75.0867 55.6595 75.0301 55.4825C74.7462 54.6783 74.5411 53.8484 74.4177 53.0045C74.2017 51.3903 74.2336 49.4645 74.9841 47.9954C75.3346 47.29 75.9052 46.7178 76.6097 46.3653C77.3142 46.0128 78.1142 45.8991 78.889 46.0414C79.6638 46.1837 80.3712 46.5743 80.9044 47.1542C81.4376 47.734 81.7676 48.4717 81.8446 49.2557C82.3706 49.0506 82.9366 48.9685 83.4993 49.0158C84.0619 49.063 84.6063 49.2383 85.0908 49.5282C85.809 49.9663 86.3477 50.6458 86.6104 51.445C86.8732 52.2441 86.8427 53.1108 86.5245 53.8895V53.8895Z" fill="white"/>
<path d="M70.8955 59.0577C69.846 59.6884 68.8407 60.3897 67.8865 61.1569C67.2469 61.6521 66.6326 62.1791 66.0457 62.7358C65.2937 63.4531 64.6316 64.259 64.0739 65.1359C63.5521 65.952 63.0998 66.8106 62.7216 67.7024C62.1502 69.066 61.6943 70.4751 61.3588 71.915C60.6858 75.0205 60.2796 78.1779 60.1445 81.3526C57.6554 80.1093 55.6571 78.0643 54.4717 75.5471C53.2863 73.0298 52.9827 70.1868 53.6098 67.4759C54.2369 64.7651 55.7583 62.3443 57.9288 60.6033C60.0993 58.8624 62.7926 57.9027 65.5749 57.8789C65.7908 57.8789 65.9926 57.8789 66.2085 57.8789C67.8336 57.9568 69.427 58.3575 70.8955 59.0577V59.0577Z" fill="#7D63C4"/>
<path d="M64.0738 65.1361C63.5519 65.9522 63.0996 66.8107 62.7215 67.7026C62.15 69.0662 61.6942 70.4753 61.3586 71.9152C60.6223 70.8921 59.9957 69.6673 59.8966 68.4425C59.862 68.0021 59.9186 67.5593 60.0628 67.1418C60.207 66.7242 60.4357 66.3409 60.7347 66.0157C61.0337 65.6905 61.3964 65.4304 61.8004 65.2516C62.2044 65.0729 62.6408 64.9793 63.0826 64.9768C63.4197 64.9726 63.755 65.0265 64.0738 65.1361V65.1361Z" fill="white"/>
<g opacity="0.72">
<path opacity="0.72" d="M141.607 57.2276C146.76 57.2276 150.938 53.0498 150.938 47.8961C150.938 42.7425 146.76 38.5647 141.607 38.5647C136.453 38.5647 132.275 42.7425 132.275 47.8961C132.275 53.0498 136.453 57.2276 141.607 57.2276Z" fill="#7D63C4"/>
<path opacity="0.72" d="M145.656 49.5599C145.886 49.3229 146.079 49.0533 146.23 48.7598C146.496 48.252 146.567 47.6643 146.43 47.1075C146.293 46.5508 145.958 46.0632 145.486 45.7367C145.18 45.5253 144.829 45.3875 144.461 45.3341C144.092 45.2807 143.716 45.313 143.362 45.4287C143.343 44.9056 143.154 44.403 142.824 43.997C142.493 43.5909 142.04 43.3033 141.532 43.1778C141.023 43.0522 140.488 43.0955 140.007 43.3011C139.525 43.5066 139.124 43.8633 138.863 44.3171C138.311 45.2694 138.212 46.5367 138.297 47.6164C138.342 48.1811 138.444 48.7397 138.601 49.2838C138.679 49.5599 139.093 51.1458 139.376 51.1954C141.217 51.5069 144.184 51.0715 145.656 49.5599Z" fill="white"/>
</g>
<g opacity="0.72">
<path opacity="0.72" d="M137.447 152.372C141.127 152.372 144.11 149.389 144.11 145.71C144.11 142.03 141.127 139.048 137.447 139.048C133.768 139.048 130.785 142.03 130.785 145.71C130.785 149.389 133.768 152.372 137.447 152.372Z" fill="#7D63C4"/>
<path opacity="0.72" d="M140.336 146.91C140.5 146.741 140.637 146.547 140.743 146.336C140.933 145.974 140.984 145.556 140.887 145.159C140.79 144.762 140.551 144.414 140.216 144.181C139.996 144.028 139.744 143.929 139.479 143.891C139.214 143.853 138.944 143.877 138.69 143.961C138.674 143.589 138.538 143.232 138.303 142.944C138.067 142.655 137.744 142.451 137.383 142.361C137.021 142.272 136.64 142.301 136.297 142.446C135.954 142.591 135.667 142.843 135.479 143.165C135.119 143.895 134.977 144.713 135.072 145.522C135.105 145.925 135.178 146.324 135.292 146.712C135.348 146.906 135.646 148.043 135.844 148.075C137.168 148.287 139.285 147.972 140.336 146.91Z" fill="white"/>
</g>
<path d="M122.628 65.7334L118.194 75.1099C116.585 78.5122 118.038 82.5746 121.441 84.1836L130.817 88.6178C134.219 90.2268 138.282 88.7731 139.891 85.3708L144.325 75.9942C145.934 72.592 144.48 68.5296 141.078 66.9206L131.702 62.4863C128.299 60.8773 124.237 62.3311 122.628 65.7334Z" fill="#7D63C4"/>
<path d="M141.798 77.6393L138.587 84.4291C137.915 85.8473 136.709 86.9416 135.232 87.4724C133.755 88.0031 132.128 87.9272 130.707 87.2611L122.565 83.4095C121.148 82.7369 120.054 81.5305 119.523 80.0539C118.993 78.5773 119.068 76.9506 119.733 75.5295L119.949 75.0693C122.162 73.2993 125.988 70.9204 127.383 74.1666C129.394 78.8394 132.006 77.3278 135.348 75.3737C138.152 73.7206 141.501 73.1719 141.798 77.6393Z" fill="white"/>
<path d="M129.178 70.4177C130.562 70.4177 131.685 69.2955 131.685 67.9113C131.685 66.5271 130.562 65.405 129.178 65.405C127.794 65.405 126.672 66.5271 126.672 67.9113C126.672 69.2955 127.794 70.4177 129.178 70.4177Z" fill="white"/>
<path d="M153.569 96.383L147.729 108.733C145.611 113.211 147.525 118.559 152.003 120.677L164.353 126.517C168.831 128.635 174.179 126.721 176.297 122.243L182.137 109.893C184.255 105.415 182.342 100.067 177.863 97.9489L165.513 92.1087C161.035 89.9907 155.687 91.9044 153.569 96.383Z" fill="#7D63C4"/>
<path d="M178.805 112.062L174.557 121.001C173.67 122.865 172.08 124.303 170.136 124.999C168.191 125.694 166.051 125.592 164.182 124.714L153.477 119.652C151.612 118.764 150.175 117.175 149.479 115.23C148.783 113.286 148.885 111.145 149.763 109.276L150.05 108.671C152.963 106.349 157.997 103.209 159.834 107.482C162.486 113.634 165.923 111.645 170.323 109.071C174.002 106.908 178.416 106.179 178.805 112.062Z" fill="white"/>
<path d="M162.188 102.554C164.011 102.554 165.488 101.077 165.488 99.2546C165.488 97.4325 164.011 95.9553 162.188 95.9553C160.366 95.9553 158.889 97.4325 158.889 99.2546C158.889 101.077 160.366 102.554 162.188 102.554Z" fill="white"/>
<path d="M177.563 61.1995C178.055 62.1047 178.413 63.0766 178.625 64.0846C179.002 65.9396 178.891 67.8606 178.304 69.66C177.716 71.4594 176.672 73.0755 175.273 74.3506C174.165 75.3312 172.752 76.0994 171.627 77.126C170.809 77.8339 170.206 78.7576 169.888 79.7916C169.829 80.1442 169.687 80.4778 169.474 80.7651C168.816 81.4731 168.175 80.3615 167.605 80.1597C166.691 79.8628 165.699 79.912 164.819 80.2978C162.506 81.2514 159.935 81.3789 157.538 80.6588C155.142 79.9388 153.067 78.4151 151.662 76.3444C150.257 74.2736 149.609 71.7822 149.826 69.2894C150.043 66.7966 151.113 64.4548 152.854 62.658C154.589 60.888 156.861 59.7658 159.052 58.6047C160.985 57.5781 162.908 56.4807 165.003 55.8753C169.938 54.4098 175.181 56.8559 177.563 61.1995Z" fill="#7D63C4"/>
<path d="M157.767 74.0002C159.071 74.0002 160.128 72.9431 160.128 71.639C160.128 70.335 159.071 69.2778 157.767 69.2778C156.463 69.2778 155.406 70.335 155.406 71.639C155.406 72.9431 156.463 74.0002 157.767 74.0002Z" fill="white"/>
<path d="M164.129 70.5981C165.433 70.5981 166.49 69.541 166.49 68.2369C166.49 66.9329 165.433 65.8757 164.129 65.8757C162.825 65.8757 161.768 66.9329 161.768 68.2369C161.768 69.541 162.825 70.5981 164.129 70.5981Z" fill="white"/>
<path d="M170.097 67.4052C171.401 67.4052 172.458 66.3481 172.458 65.044C172.458 63.74 171.401 62.6829 170.097 62.6829C168.793 62.6829 167.736 63.74 167.736 65.044C167.736 66.3481 168.793 67.4052 170.097 67.4052Z" fill="white"/>
<path d="M250.88 220.209V220.266L250.006 240.366L249.517 251.379C249.517 250.972 249.538 250.551 249.563 250.143C243.52 248.122 235.757 245.248 229.767 243.216C217.979 239.194 209.097 236.104 198.538 233.675C197.9 230.599 197.299 224.001 200.262 214.368C204.51 200.626 205.908 186.682 203.748 183.988C203.728 183.957 203.702 183.93 203.671 183.91C202.134 178.37 198.07 181.956 198.07 181.956C198.07 181.956 198.095 182.013 198.106 182.044C197.26 180.642 196.331 179.292 195.323 178.002C195.357 177.801 195.41 177.604 195.483 177.414C196.789 173.485 203.748 172.54 203.748 172.54C213.937 173.29 219.296 177.832 222.001 183.797C224.383 191.326 222.978 199.49 222.67 207.214C222.546 210.563 222.068 215.71 224.624 218.421C226.985 222.885 232.925 220.956 234.536 220.468C235.06 220.319 236.419 220.227 238.203 220.17C241.839 220.082 247.188 220.149 250.448 220.206C250.607 220.209 250.745 220.209 250.88 220.209Z" fill="#7D63C4"/>
<path d="M109.882 39.5453C109.14 39.7106 108.378 39.7678 107.62 39.7152C106.229 39.6054 104.891 39.1363 103.736 38.3538C102.581 37.5713 101.649 36.5022 101.032 35.2513C100.561 34.2636 100.324 33.106 99.8104 32.1007C99.4754 31.3787 98.9443 30.7654 98.2776 30.3307C98.0395 30.2173 97.8319 30.0486 97.6723 29.8386C97.3183 29.2297 98.2245 29.0032 98.4829 28.6421C98.8776 28.0547 99.0449 27.3437 98.9537 26.642C98.7435 24.8053 99.1741 22.9524 100.173 21.3967C101.171 19.8409 102.676 18.6778 104.434 18.1041C106.191 17.5304 108.093 17.5812 109.817 18.2481C111.541 18.915 112.982 20.1569 113.896 21.7639C114.795 23.3533 115.124 25.1906 115.5 26.9783C115.832 28.5536 116.208 30.136 116.208 31.7467C116.24 35.5309 113.439 38.7452 109.882 39.5453Z" fill="#7D63C4"/>
<path d="M106.526 25.1411C107.486 25.1411 108.264 24.3629 108.264 23.4029C108.264 22.443 107.486 21.6648 106.526 21.6648C105.566 21.6648 104.788 22.443 104.788 23.4029C104.788 24.3629 105.566 25.1411 106.526 25.1411Z" fill="white"/>
<path d="M107.637 30.3379C108.597 30.3379 109.375 29.5597 109.375 28.5997C109.375 27.6398 108.597 26.8616 107.637 26.8616C106.677 26.8616 105.899 27.6398 105.899 28.5997C105.899 29.5597 106.677 30.3379 107.637 30.3379Z" fill="white"/>
<path d="M108.682 35.216C109.641 35.216 110.42 34.4378 110.42 33.4779C110.42 32.5179 109.641 31.7397 108.682 31.7397C107.722 31.7397 106.943 32.5179 106.943 33.4779C106.943 34.4378 107.722 35.216 108.682 35.216Z" fill="white"/>
<g opacity="0.72">
<path opacity="0.72" d="M213.518 102.741C220.815 102.741 226.73 96.8265 226.73 89.5301C226.73 82.2337 220.815 76.3188 213.518 76.3188C206.222 76.3188 200.307 82.2337 200.307 89.5301C200.307 96.8265 206.222 102.741 213.518 102.741Z" fill="#7D63C4"/>
<path opacity="0.72" d="M214.014 95.7005C214.459 95.8425 214.924 95.9153 215.391 95.9164C216.203 95.9269 216.99 95.6411 217.606 95.1126C218.222 94.5841 218.624 93.8491 218.736 93.0455C218.809 92.5209 218.759 91.9867 218.59 91.4848C218.421 90.9829 218.138 90.5271 217.763 90.1533C218.41 89.7936 218.923 89.2333 219.224 88.5569C219.525 87.8804 219.599 87.1244 219.433 86.4027C219.267 85.681 218.871 85.0327 218.305 84.5554C217.739 84.0781 217.033 83.7978 216.294 83.7565C214.74 83.668 213.076 84.3512 211.763 85.1442C211.079 85.5624 210.439 86.0474 209.851 86.5921C209.55 86.8682 207.808 88.4081 207.929 88.7939C208.708 91.3321 211.154 94.8119 214.014 95.7005Z" fill="white"/>
</g>
<path d="M219.653 143.451C218.827 144.652 217.83 145.725 216.694 146.637C214.59 148.3 212.091 149.387 209.441 149.794C206.791 150.201 204.08 149.914 201.575 148.96C199.624 148.184 197.755 146.885 195.737 146.128C194.32 145.546 192.769 145.374 191.259 145.632C190.776 145.782 190.264 145.816 189.765 145.731C188.455 145.349 189.447 143.834 189.337 142.984C189.127 141.64 188.434 140.419 187.386 139.55C184.686 137.239 182.867 134.066 182.238 130.567C181.609 127.069 182.209 123.46 183.935 120.353C185.662 117.246 188.409 114.831 191.712 113.518C195.015 112.204 198.671 112.073 202.06 113.145C205.408 114.207 208.272 116.363 211.14 118.392C213.667 120.179 216.269 121.932 218.386 124.169C223.374 129.483 223.625 137.674 219.653 143.451Z" fill="#7D63C4"/>
<path d="M193.829 128.442C195.675 128.442 197.171 126.946 197.171 125.1C197.171 123.254 195.675 121.758 193.829 121.758C191.983 121.758 190.487 123.254 190.487 125.1C190.487 126.946 191.983 128.442 193.829 128.442Z" fill="white"/>
<path d="M202.187 134.311C204.033 134.311 205.529 132.815 205.529 130.969C205.529 129.124 204.033 127.628 202.187 127.628C200.341 127.628 198.845 129.124 198.845 130.969C198.845 132.815 200.341 134.311 202.187 134.311Z" fill="white"/>
<path d="M210.032 139.816C211.877 139.816 213.373 138.32 213.373 136.474C213.373 134.628 211.877 133.132 210.032 133.132C208.186 133.132 206.69 134.628 206.69 136.474C206.69 138.32 208.186 139.816 210.032 139.816Z" fill="white"/>
<g opacity="0.54">
<path opacity="0.54" d="M118.172 44.2854C118.128 44.8626 118.039 45.4354 117.906 45.9988L116.427 52.4168C115.974 54.3815 115.464 56.4524 114.059 57.8967C111.439 60.5765 107.053 59.9641 103.396 59.1499L94.4186 57.1569C92.3583 56.6967 90.2626 56.2294 88.4006 55.2028C86.5385 54.1762 84.9526 52.5089 84.5066 50.438C84.1915 48.9122 84.5314 47.3369 84.8606 45.8147L86.2589 39.648C86.7085 37.6302 87.2182 35.4956 88.6732 34.0301C91.268 31.414 95.5655 32.0087 99.1657 32.7875L108.345 34.7805C113.889 35.9948 118.614 38.5648 118.172 44.2854Z" fill="#7D63C4"/>
<path opacity="0.54" d="M105.792 44.459C106.176 44.8168 106.459 45.2693 106.613 45.7712C106.767 46.273 106.786 46.8065 106.668 47.318C106.551 47.8295 106.3 48.3011 105.943 48.6853C105.585 49.0696 105.133 49.3529 104.631 49.507L101.895 50.346L99.1618 51.1814C98.6589 51.3359 98.1241 51.3551 97.6115 51.2369C97.0988 51.1188 96.6264 50.8675 96.2418 50.5084C95.8573 50.1494 95.5743 49.6953 95.4213 49.1919C95.2683 48.6886 95.2507 48.1537 95.3704 47.6414L96.0112 44.8519L96.6519 42.0659C96.7704 41.5544 97.0212 41.083 97.3793 40.699C97.7374 40.315 98.1901 40.0318 98.6922 39.878C99.1942 39.7242 99.7278 39.705 100.24 39.8225C100.751 39.94 101.223 40.1899 101.608 40.5473L103.7 42.4978L105.792 44.459Z" fill="white"/>
</g>
<g opacity="0.54">
<path opacity="0.54" d="M219.055 56.64C219.011 57.2171 218.922 57.7899 218.79 58.3533L217.31 64.782C216.857 66.7467 216.347 68.8176 214.942 70.2584C212.322 72.9417 207.936 72.3257 204.279 71.5151L195.302 69.5185C193.242 69.0618 191.146 68.591 189.284 67.568C187.422 66.5449 185.836 64.8705 185.39 62.8031C185.075 61.2774 185.415 59.7021 185.744 58.1799L187.146 52.038C187.592 50.0167 188.102 47.8856 189.556 46.4165C192.151 43.804 196.449 44.3951 200.049 45.1775L209.214 47.1563C214.772 48.3564 219.498 50.93 219.055 56.64Z" fill="#7D63C4"/>
<path opacity="0.54" d="M206.676 56.8205C207.059 57.1788 207.342 57.6316 207.496 58.1336C207.65 58.6357 207.669 59.1693 207.551 59.681C207.433 60.1927 207.183 60.6645 206.826 61.0491C206.468 61.4336 206.016 61.7175 205.514 61.8721L202.778 62.7076L200.045 63.5465C199.542 63.7011 199.007 63.7202 198.495 63.602C197.982 63.4839 197.51 63.2326 197.125 62.8736C196.741 62.5145 196.458 62.0604 196.305 61.557C196.152 61.0537 196.134 60.5189 196.254 60.0065L196.894 57.2206L197.535 54.4346C197.654 53.9231 197.905 53.4516 198.263 53.0676C198.621 52.6836 199.073 52.4005 199.575 52.2467C200.078 52.0928 200.611 52.0737 201.123 52.1911C201.635 52.3086 202.107 52.5586 202.491 52.9159L204.583 54.8665L206.676 56.8205Z" fill="white"/>
</g>
<g opacity="0.54">
<path opacity="0.54" d="M176.692 142.761C176.67 143.029 176.628 143.296 176.565 143.558L175.878 146.556C175.666 147.469 175.429 148.432 174.774 149.105C173.556 150.354 171.513 150.068 169.818 149.689L165.637 148.761C164.666 148.593 163.725 148.286 162.84 147.852C162.399 147.631 162.01 147.318 161.699 146.936C161.388 146.553 161.162 146.109 161.035 145.632C160.938 144.911 160.995 144.178 161.201 143.48L161.839 140.612C162.047 139.674 162.285 138.68 162.964 137.996C164.171 136.779 166.171 137.055 167.846 137.419L172.122 138.347C174.696 138.899 176.898 140.096 176.692 142.761Z" fill="#7D63C4"/>
<path opacity="0.54" d="M170.926 142.843C171.105 143.009 171.238 143.22 171.309 143.454C171.381 143.687 171.39 143.936 171.335 144.174C171.28 144.413 171.164 144.633 170.997 144.811C170.83 144.99 170.619 145.122 170.385 145.193L169.114 145.582L167.839 145.972C167.605 146.045 167.356 146.055 167.117 146.001C166.878 145.947 166.658 145.83 166.478 145.664C166.298 145.497 166.166 145.286 166.094 145.051C166.022 144.817 166.014 144.568 166.069 144.329L166.381 143.016L166.678 141.717C166.732 141.478 166.848 141.257 167.015 141.078C167.182 140.898 167.393 140.766 167.627 140.694C167.861 140.622 168.11 140.613 168.349 140.669C168.588 140.724 168.807 140.841 168.986 141.009L169.96 141.915L170.926 142.843Z" fill="white"/>
</g>
<g opacity="0.54">
<path opacity="0.54" d="M132.623 18.4541C132.913 18.6051 133.192 18.7766 133.458 18.9674L136.432 21.1409C137.345 21.8029 138.297 22.5215 138.729 23.5623C139.533 25.4987 138.251 27.6191 137.03 29.3183L134.032 33.4955C133.39 34.49 132.607 35.3866 131.709 36.1576C130.775 36.8656 129.564 37.34 128.406 37.1028C127.553 36.9329 126.817 36.3948 126.109 35.9027L123.242 33.846C122.304 33.1734 121.319 32.43 120.884 31.368C120.109 29.4564 121.358 27.3784 122.551 25.704L125.592 21.4206C127.415 18.8364 129.776 16.9708 132.623 18.4541Z" fill="#7D63C4"/>
<path opacity="0.54" d="M129.989 24.858C130.256 24.7395 130.55 24.6932 130.84 24.7237C131.131 24.7541 131.408 24.8603 131.645 25.0315C131.882 25.2028 132.07 25.4331 132.19 25.6996C132.31 25.966 132.358 26.2593 132.329 26.5501L132.159 28.1431L131.989 29.7361C131.958 30.028 131.851 30.3066 131.678 30.5438C131.505 30.781 131.272 30.9684 131.004 31.0872C130.735 31.206 130.44 31.2519 130.148 31.2205C129.857 31.189 129.578 31.0811 129.341 30.9078L128.049 29.9662L126.757 29.0281C126.519 28.8555 126.331 28.6231 126.211 28.3545C126.092 28.0858 126.046 27.7905 126.077 27.4982C126.108 27.2059 126.216 26.927 126.389 26.6897C126.563 26.4524 126.796 26.265 127.065 26.1465L128.527 25.4987L129.989 24.858Z" fill="white"/>
</g>
<path d="M272.775 285.678C272.773 285.74 272.766 285.801 272.754 285.862C272.748 285.877 272.748 285.893 272.754 285.908C272.255 289.214 270.883 292.327 268.778 294.924C268.753 294.946 268.743 294.981 268.721 295.002C265.486 299.034 260.795 301.944 256.048 303.771C251.198 305.658 246.281 306.419 242.78 306.157H242.702C238.419 305.838 233.718 306.394 229.604 307.166C229.173 307.247 228.741 307.325 228.309 307.417C225.594 307.962 222.914 308.642 220.259 309.392L219.76 309.531L219.427 309.619C216.949 293.392 215.271 276.775 215.271 276.775L265.893 285.77C268.171 286.184 270.508 286.152 272.775 285.678V285.678Z" fill="#7D63C4"/>
<path d="M168.816 208.541C166.154 211.182 162.589 211.692 159.088 212.471C151.133 214.241 144.464 212.23 144.114 203.086C143.887 197.203 144.51 191.316 148.071 186.431C152.337 180.579 158.89 176.681 165.417 173.835C165.417 173.835 168.412 189.156 182.055 189.822C195.698 190.487 192.378 208.474 176.391 205.476" stroke="black" stroke-width="1.13784" stroke-miterlimit="10"/>
<path d="M179.071 213.136C179.425 213.136 179.75 213.136 180.08 213.112C180.16 213.106 180.24 213.106 180.32 213.112H180.352L180.979 213.055" stroke="black" stroke-width="1.13784" stroke-miterlimit="10"/>
<path d="M194.187 175.715C191.95 173.056 189.277 170.797 186.282 169.035C185.949 168.816 185.604 168.615 185.248 168.433C184.894 168.231 184.54 168.037 184.186 167.856C183.439 167.47 182.664 167.106 181.871 166.794C177.19 164.834 172.163 163.831 167.088 163.845C139.788 163.845 147.374 187.468 147.374 187.468" stroke="black" stroke-width="1.13784" stroke-miterlimit="10"/>
<path d="M198.718 233.442C197.776 228.422 198.955 220.609 200.262 214.361C201.433 208.796 202.715 204.481 202.715 204.481C204.648 193.125 204.566 187.036 203.671 183.903C202.134 178.37 198.07 181.956 198.07 181.956" stroke="black" stroke-width="1.13784" stroke-miterlimit="10"/>
<path d="M203.67 183.903C202.134 178.37 198.07 181.956 198.07 181.956C197.368 180.356 196.5 178.834 195.482 177.414C195.072 176.843 194.64 176.286 194.187 175.743C195.401 172.518 198.64 170.596 201.975 170.338C210.729 169.665 219.36 175.46 221.997 183.79C224.379 191.319 222.974 199.483 222.666 207.207C222.542 210.556 222.064 215.703 224.62 218.414C224.755 218.553 224.882 218.676 225.027 218.8C227.151 220.631 230.535 220.733 234.546 220.461C235.714 220.379 236.943 220.28 238.214 220.163C242.108 219.809 246.356 219.505 250.459 220.199L250.866 220.266C250.742 226.956 250.331 233.668 249.991 240.359C249.811 243.616 249.637 246.876 249.549 250.136C243.506 248.115 235.743 245.241 229.753 243.209L226.56 242.108C216.326 238.621 208.127 235.87 198.555 233.668C194.863 232.815 190.969 232.054 186.664 231.35L182.087 230.546C181.78 230.492 181.502 230.332 181.302 230.093C181.103 229.853 180.994 229.551 180.997 229.24V213.044C184.053 212.785 187.008 211.821 189.631 210.23C192.253 208.638 194.472 206.461 196.112 203.869C200.541 196.746 200.962 189.457 198.541 183.06C198.455 182.805 198.354 182.554 198.24 182.31C198.213 182.236 198.183 182.164 198.148 182.094C198.148 182.073 198.127 182.037 198.116 182.013" stroke="black" stroke-width="1.13784" stroke-miterlimit="10"/>
<path d="M85.5122 242.108C86.9282 231.134 87.5796 219.972 88.9531 208.934" stroke="black" stroke-width="1.13784" stroke-miterlimit="10"/>
<path d="M89.1797 207.207C89.5655 204.219 90.0222 201.231 90.5957 198.279C90.6169 198.134 90.6417 197.996 90.6736 197.861C90.9922 196.112 91.3462 194.374 91.7356 192.636C92.9179 187.436 97.0456 183.63 99.9802 179.393L100.161 178.94C106.492 169.729 109.997 158.87 110.246 147.696C110.317 143.653 110.158 135.66 105.524 134.01C102.922 133.079 100.161 134.899 98.72 136.977C98.1283 137.834 97.6522 138.766 97.304 139.748" stroke="black" stroke-width="1.13784" stroke-miterlimit="10"/>
<path d="M131.26 336.3C119.956 304.206 125.316 269.146 125.316 269.146L108.646 269.67L64.6722 271.065C62.0895 271.15 59.5186 270.68 57.1333 269.686C54.7479 268.692 52.6037 267.198 50.8455 265.304C49.0873 263.411 47.7562 261.162 46.942 258.709C46.1278 256.257 45.8496 253.658 46.1261 251.089L59.1887 203.401" stroke="black" stroke-width="1.13784" stroke-miterlimit="10"/>
<path d="M59.8223 201.072L60.9692 196.895L62.3003 192.158" stroke="black" stroke-width="1.13784" stroke-miterlimit="10"/>
<path d="M63.4333 188.08L64.1944 185.344C65.2025 181.71 64.953 177.843 63.4864 174.37L61.9748 170.759C60.9872 167.75 60.6792 166.295 61.9182 163.353C62.5044 161.965 63.3273 160.689 64.3502 159.583C67.3344 156.291 71.5364 154.655 75.8658 154.096C80.1952 153.537 84.9742 153.972 88.4576 156.779C90.8223 158.684 93.0596 163.219 91.5126 166.182C90.3904 168.337 88.0151 168.964 85.9937 168.192C85.2863 167.928 84.6492 167.504 84.1317 166.953C81.7457 164.454 76.6977 163.909 74.9277 166.341" stroke="black" stroke-width="1.13784" stroke-miterlimit="10"/>
<path d="M249.45 254.112C249.45 253.223 249.482 252.342 249.517 251.443V251.372C249.517 250.965 249.538 250.544 249.563 250.136" stroke="black" stroke-width="1.13784" stroke-miterlimit="10"/>
<path d="M244.908 169.081C240.762 171.297 235.672 176.869 244.26 189.967C247.092 194.282 250.083 198.948 250.504 204.276C250.897 209.6 251.022 214.94 250.88 220.277" stroke="black" stroke-width="1.13784" stroke-miterlimit="10"/>
<path d="M204.704 274.916L214.559 276.665L215.267 276.789L219.788 277.596L265.882 285.784C268.164 286.199 270.505 286.168 272.775 285.692C272.775 285.692 272.775 285.692 272.775 285.692C276.716 284.862 280.268 282.74 282.866 279.661C285.464 276.583 286.96 272.725 287.115 268.7L280.304 212.942L278.796 201.04C278.318 197.297 279.121 193.503 281.076 190.275L283.097 186.912C283.097 186.912 286.616 181.779 280.46 181.404C277.143 181.209 273.692 182.112 270.693 183.471C268.98 184.232 266.573 185.595 265.606 187.468C265.213 188.177 265.081 189.001 265.231 189.797C265.939 193.454 270.541 194.997 273.578 193.454" stroke="black" stroke-width="1.13784" stroke-miterlimit="10"/>
<path d="M282.492 181.669C282.492 181.669 285.972 179.598 283.618 174.504C282.783 172.692 280.251 171.435 274.803 171.782C260.289 172.706 254.604 187.631 265.624 187.468" stroke="black" stroke-width="1.13784" stroke-miterlimit="10"/>
<path d="M279.186 171.757C282.407 167.318 276.708 163.07 272.555 163.215C268.64 163.353 264.679 164.801 261.249 166.614C256.477 169.134 250.317 174.016 252.08 180.193C252.6 182.013 256.717 184.261 259.408 182.961" stroke="black" stroke-width="1.13784" stroke-miterlimit="10"/>
<path d="M251.775 177.998C251.775 177.998 251.775 177.998 251.775 178.02C249.527 182.314 238.886 178.02 244.894 169.081C246.297 167.104 247.979 165.34 249.888 163.845C264.87 151.604 268.219 164.051 268.197 163.311" stroke="black" stroke-width="1.13784" stroke-miterlimit="10"/>
<path d="M258.296 183.061C258.296 183.061 263.776 186.955 262.094 193.443" stroke="black" stroke-width="1.13784" stroke-miterlimit="10"/>
<path d="M65.3661 151.912C65.0121 150.517 65.0581 148.758 65.8864 146.507C67.0794 143.271 70.5557 141.147 73.9399 139.749C75.1754 139.239 76.4179 138.818 77.4799 138.488C81.1722 137.356 85.2255 136.754 89.1619 137.15C90.4886 137.279 91.8004 137.53 93.0807 137.901C94.5575 138.327 95.9706 138.948 97.2827 139.749C100.518 141.738 102.71 144.758 104.026 148.723C105.173 152.142 105.616 156.206 102.777 158.341" stroke="black" stroke-width="1.13784" stroke-miterlimit="10"/>
<path d="M103.035 203.844L101.991 208.899C101.956 209.069 101.888 209.23 101.79 209.373C101.691 209.516 101.565 209.638 101.419 209.731C101.273 209.824 101.109 209.887 100.938 209.916C100.767 209.944 100.592 209.938 100.423 209.897C96.405 208.945 92.8827 208.06 89.1798 207.207C87.3426 206.775 85.4451 206.368 83.4344 205.947C75.5756 204.322 67.7274 202.488 59.8261 201.072C56.5233 200.481 53.217 199.968 49.8894 199.582C48.0273 199.366 46.1405 199.277 44.2678 199.139C43.8585 199.13 43.4618 198.995 43.1315 198.753C41.3615 197.458 43.1315 193.245 43.5174 191.496C43.5174 191.475 43.5174 191.45 43.5174 191.429C43.7899 190.088 51.5001 190.473 62.2794 192.155C66.0388 192.746 70.17 193.482 74.4994 194.371C80.5847 195.621 86.0717 196.969 90.5569 198.265C91.3286 198.491 92.0685 198.707 92.7729 198.923C92.7729 198.923 92.7729 198.923 92.7942 198.923C93.6898 199.207 94.5323 199.479 95.3253 199.752C100.334 201.462 103.219 202.948 103.035 203.844Z" fill="#7D63C4"/>
<path d="M103.035 203.844L101.991 208.899C101.956 209.069 101.888 209.23 101.79 209.373C101.691 209.516 101.565 209.638 101.419 209.731C101.273 209.824 101.109 209.887 100.938 209.916C100.767 209.944 100.592 209.938 100.423 209.897C96.405 208.945 92.8827 208.06 89.1798 207.207C87.3426 206.775 85.4451 206.368 83.4344 205.947C75.5756 204.322 67.7274 202.488 59.8261 201.072C56.5233 200.481 53.217 199.968 49.8894 199.582C48.0273 199.366 46.1405 199.277 44.2678 199.139C43.8585 199.13 43.4618 198.995 43.1315 198.753C41.3615 197.458 43.1315 193.245 43.5174 191.496C43.5174 191.475 43.5174 191.45 43.5174 191.429C43.7899 190.088 51.5001 190.473 62.2794 192.155C66.0388 192.746 70.17 193.482 74.4994 194.371C80.5847 195.621 86.0717 196.969 90.5569 198.265C91.3286 198.491 92.0685 198.707 92.7729 198.923C92.7729 198.923 92.7729 198.923 92.7942 198.923C93.6898 199.207 94.5323 199.479 95.3253 199.752C100.334 201.462 103.219 202.948 103.035 203.844Z" stroke="black" stroke-width="1.13784" stroke-miterlimit="10"/>
<path d="M92.0118 163.46L93.0171 165.474C94.2809 166.858 96.0297 167.732 98.4263 167.131C103.127 165.962 103.591 162.065 102.773 158.341C102.633 157.665 102.451 156.998 102.228 156.344C101.127 153.059 99.4245 150.415 97.0386 148.485C95.3432 147.113 93.3841 146.103 91.2825 145.519C89.5701 145.024 87.8034 144.743 86.0221 144.68C82.5221 144.559 79.0273 145.038 75.6888 146.096C72.3506 147.119 67.784 148.878 65.3556 151.898C64.8116 152.561 64.381 153.31 64.0812 154.114C63.3342 156.146 63.2068 157.792 63.4687 159.123L63.7201 160.362" stroke="black" stroke-width="1.13784" stroke-miterlimit="10"/>
<path d="M93.3144 137.979L94.4826 133.139L95.8703 127.44C96.0662 126.618 96.0907 125.765 95.9424 124.933C95.794 124.101 95.4759 123.309 95.008 122.606C94.5401 121.902 93.9322 121.303 93.2225 120.845C92.5127 120.386 91.7161 120.079 90.8825 119.942C90.5561 119.888 90.2256 119.862 89.8948 119.864C88.494 119.861 87.1344 120.338 86.0431 121.216C84.9517 122.094 84.1946 123.32 83.898 124.689C83.544 126.339 83.1015 128.346 82.613 130.608C82.1493 132.754 81.636 135.104 81.0908 137.582" stroke="black" stroke-width="1.13784" stroke-miterlimit="10"/>
<path d="M79.4482 145.188V145.179" stroke="black" stroke-width="0.75856" stroke-miterlimit="10"/>
<path d="M74.9381 166.337C74.5841 168.076 74.3824 169.169 74.393 169.357C74.393 169.357 74.393 169.357 74.393 169.382C72.8602 179.683 68.3502 185.191 63.4437 188.062C60.4427 189.77 57.0911 190.769 53.645 190.983" stroke="black" stroke-width="1.13784" stroke-miterlimit="10"/>
<path d="M86.022 168.189C86.022 168.189 77.8021 190.098 90.6558 197.865C91.3355 198.273 92.0456 198.628 92.7798 198.927C93.6595 199.292 94.5676 199.584 95.495 199.801" stroke="black" stroke-width="1.13784" stroke-miterlimit="10"/>
<path d="M101.311 209.795C101.311 209.795 101.368 210.807 88.9531 208.934C84.7051 208.297 78.9951 207.32 71.3168 205.844C66.5024 204.924 62.5022 204.106 59.1888 203.401C41.779 199.677 43.1278 198.757 43.1278 198.757" stroke="black" stroke-width="1.13784" stroke-miterlimit="10"/>
<path d="M136.29 86.6415C133.642 100.678 124.919 115.454 114.342 124.937C110.016 128.831 104.986 131.546 99.5552 132.615C97.889 132.954 96.1934 133.129 94.493 133.136L95.8701 127.44C96.2082 126.037 96.0433 124.56 95.4042 123.266C94.7651 121.972 93.6922 120.944 92.3726 120.36C91.8958 120.155 91.3969 120.007 90.8858 119.917C90.5582 119.863 90.2266 119.837 89.8946 119.84C88.4908 119.837 87.129 120.317 86.0372 121.2C84.9454 122.082 84.1901 123.313 83.8978 124.686C83.6819 125.72 83.4199 126.891 83.1367 128.173C69.6847 119.28 63.8508 100.26 64.4986 84.8148C64.7039 79.6818 64.9871 72.924 67.235 67.6989C67.9936 65.8367 69.1261 64.1499 70.5626 62.7429C76.9346 56.7462 85.6572 54.0098 94.6523 53.5991C101.556 53.9247 108.351 55.4509 114.731 58.1091C126.626 63.1323 139.037 72.039 136.29 86.6415Z" fill="#7D63C4"/>
<path d="M136.29 86.6415C133.642 100.678 124.919 115.454 114.342 124.937C110.016 128.831 104.986 131.546 99.5552 132.615L100.812 127.44C101.008 126.618 101.032 125.765 100.884 124.933C100.736 124.101 100.418 123.309 99.9496 122.606C99.4817 121.902 98.8739 121.303 98.1641 120.845C97.4543 120.386 96.6578 120.079 95.8241 119.942C95.4977 119.888 95.1672 119.862 94.8364 119.864C93.9829 119.861 93.1384 120.038 92.3584 120.385C91.8817 120.18 91.3827 120.032 90.8716 119.942C90.544 119.888 90.2124 119.862 89.8804 119.864C88.4825 119.864 87.1267 120.342 86.0383 121.219C84.9499 122.097 84.1945 123.32 83.8978 124.686C83.6819 125.72 83.4199 126.891 83.1367 128.173C69.6847 119.28 63.8508 100.26 64.4986 84.8148C64.7039 79.6818 64.9871 72.924 67.235 67.6989C67.9936 65.8367 69.1261 64.1499 70.5626 62.7429C76.9346 56.7462 85.6572 54.0098 94.6523 53.5991C101.556 53.9247 108.351 55.4509 114.731 58.1091C126.626 63.1323 139.037 72.039 136.29 86.6415Z" fill="#7D63C4"/>
<path d="M136.29 86.645C133.646 100.681 124.923 115.457 114.342 124.941C108.678 130.017 101.842 133.104 94.4828 133.139L95.8705 127.44C96.0663 126.618 96.0909 125.765 95.9425 124.933C95.7942 124.101 95.4761 123.309 95.0081 122.606C94.5402 121.902 93.9324 121.303 93.2226 120.845C92.5128 120.386 91.7163 120.079 90.8826 119.942C90.5562 119.888 90.2258 119.862 89.8949 119.864C88.4942 119.861 87.1346 120.338 86.0432 121.216C84.9518 122.094 84.1947 123.32 83.8982 124.689C83.5442 126.339 83.1017 128.346 82.6132 130.608C66.0106 123.249 58.8421 101.864 59.5607 84.8184C59.7625 79.6854 60.0457 72.9276 62.2971 67.7025C63.0543 65.8396 64.187 64.1525 65.6247 62.7465C78.1598 50.9583 99.7291 51.7725 114.732 58.1126C126.622 63.1359 139.037 72.039 136.29 86.645Z" stroke="black" stroke-width="1.13784" stroke-miterlimit="10"/>
<path d="M136.219 87.1511C139.083 90.5778 141.77 96.3197 139.405 104.851C139.041 106.197 138.521 107.496 137.855 108.72V108.72C134.095 115.446 126.838 116.625 121.946 116.554" stroke="black" stroke-width="1.13784" stroke-miterlimit="10"/>
<path d="M134.039 94.3269C136.517 97.2934 138.807 101.991 137.851 108.728C137.699 109.809 137.476 110.879 137.182 111.931C133.642 124.647 120.647 124.02 116.187 123.401" stroke="black" stroke-width="1.13784" stroke-miterlimit="10"/>
<path d="M64.6369 111.864C61.8686 112.434 46.2041 109.22 46.0129 96.1605C45.9568 94.3904 46.2903 92.6296 46.99 91.0027C49.4432 85.4732 55.9143 83.7245 59.6419 83.1545" stroke="black" stroke-width="1.13784" stroke-miterlimit="10"/>
<path d="M61.8192 105.319C58.9872 105.492 43.9387 100.122 45.5706 87.162C45.7653 85.4066 46.3416 83.715 47.2592 82.206C50.4452 77.0694 57.1146 76.2446 60.8811 76.188" stroke="black" stroke-width="1.13784" stroke-miterlimit="10"/>
<path d="M125.316 269.15C125.316 269.15 125.638 266.689 127.408 261.132" stroke="black" stroke-width="1.13784" stroke-miterlimit="10"/>
<path d="M183.535 230.783V230.808C183.407 239.272 177.517 241.191 172.677 242.111C160.751 244.391 152.471 235.693 152.836 228.118" stroke="black" stroke-width="1.13784" stroke-miterlimit="10"/>
<path d="M155.098 184.211C155.098 184.211 155.452 188.105 152.064 193.128C151.158 194.48 154.294 195.036 155.041 195.288" stroke="black" stroke-width="1.13784" stroke-miterlimit="10"/>
<path d="M168.757 192.638C170.768 189.154 170.103 185.003 167.27 183.368C164.438 181.732 160.51 183.231 158.499 186.716C156.487 190.2 157.152 194.351 159.985 195.986C162.818 197.622 166.745 196.123 168.757 192.638Z" stroke="black" stroke-width="1.13784" stroke-miterlimit="10"/>
<path d="M154.704 188.131C156.715 184.631 156.039 180.467 153.194 178.832C150.348 177.196 146.41 178.708 144.399 182.209C142.387 185.709 143.063 189.873 145.908 191.508C148.754 193.144 152.692 191.632 154.704 188.131Z" stroke="black" stroke-width="1.14176" stroke-miterlimit="10"/>
<path d="M149.802 179.634V180.696C150.393 180.69 150.975 180.843 151.487 181.138C151.963 181.431 152.367 181.827 152.668 182.298C152.969 182.769 153.16 183.302 153.225 183.857C153.417 185.241 153.129 186.65 152.407 187.847C151.345 189.67 149.575 190.845 147.823 190.845C147.232 190.852 146.651 190.7 146.138 190.406C145.662 190.113 145.259 189.716 144.958 189.246C144.657 188.775 144.466 188.242 144.4 187.687C144.208 186.302 144.496 184.892 145.218 183.694C146.28 181.875 148.05 180.696 149.802 180.696V179.634V179.634ZM149.802 179.634C147.756 179.634 145.586 180.937 144.304 183.174C142.534 186.239 143.119 189.9 145.611 191.316C146.283 191.703 147.047 191.905 147.823 191.9C149.869 191.9 152.039 190.594 153.324 188.36C155.094 185.298 154.507 181.634 152.015 180.218C151.341 179.833 150.578 179.632 149.802 179.637V179.634Z" fill="white"/>
<path d="M153.323 188.365C155.092 185.301 154.507 181.65 152.017 180.213C149.526 178.775 146.073 180.093 144.303 183.158C142.534 186.222 143.119 189.872 145.609 191.31C148.1 192.748 151.553 191.43 153.323 188.365Z" fill="#7D63C4"/>
<path d="M168.912 191.63C170.681 188.552 170.087 184.89 167.585 183.452C165.083 182.014 161.621 183.344 159.851 186.423C158.082 189.502 158.676 193.163 161.178 194.601C163.68 196.039 167.143 194.709 168.912 191.63Z" fill="#7D63C4"/>
<path d="M155.052 185.496C155.052 185.496 156.114 183.914 158.51 186.714" stroke="black" stroke-width="1.13784" stroke-miterlimit="10"/>
<path d="M165.472 189.364C166.049 188.609 165.997 187.6 165.357 187.111C164.717 186.622 163.73 186.838 163.154 187.594C162.577 188.349 162.629 189.357 163.269 189.846C163.909 190.335 164.896 190.119 165.472 189.364Z" fill="#353642"/>
<path d="M153.53 185.926C154.107 185.17 154.055 184.162 153.415 183.673C152.774 183.184 151.788 183.4 151.211 184.155C150.635 184.911 150.686 185.919 151.327 186.408C151.967 186.897 152.953 186.681 153.53 185.926Z" fill="#353642"/>
<path d="M162.32 201.599C155.07 207.759 151.264 202.272 151.264 202.272" stroke="black" stroke-width="1.13784" stroke-miterlimit="10"/>
<path d="M85.5122 237.006C91.7815 235.884 98.1075 235.006 104.32 233.859C107.35 233.302 110.378 232.762 113.404 232.238C126.884 229.944 140.343 228.16 153.972 228.103C154.63 228.104 155.266 227.866 155.763 227.434C156.259 227.002 156.583 226.405 156.673 225.753L156.925 223.866L158.514 212.103" stroke="black" stroke-width="1.13784" stroke-miterlimit="10"/>
<path d="M180.979 213.045V212.988V212.704" stroke="black" stroke-width="1.13784" stroke-miterlimit="10"/>
<path d="M43.103 336.3H120.753H129.536H204.771H218.868H312.833" stroke="black" stroke-width="1.13784" stroke-miterlimit="10"/>
<path d="M215.264 276.789C215.264 276.789 216.935 293.406 219.42 309.633C221.055 320.31 223.055 330.813 225.144 336.3" stroke="black" stroke-width="1.13784" stroke-miterlimit="10"/>
<path d="M219.42 309.633L219.749 309.545L220.252 309.407C222.907 308.656 225.587 307.991 228.302 307.431C228.734 307.339 229.166 307.261 229.597 307.18C232.625 306.622 235.695 306.322 238.773 306.284C240.136 306.284 241.442 306.238 242.692 306.171H242.77C248.005 305.874 252.381 305.035 256.038 303.785C262.01 301.753 266.042 298.631 268.711 295.016C268.732 294.995 268.743 294.96 268.767 294.939C270.709 292.245 272.064 289.173 272.743 285.922C272.737 285.907 272.737 285.891 272.743 285.876L272.778 285.706" stroke="black" stroke-width="1.13784" stroke-miterlimit="10"/>
</svg>
