<svg width="186" height="29" fill="#000" xmlns="http://www.w3.org/2000/svg">
  <path d="M6.776 25.456h3.744V3.52H3.128v6.864H.2V.976h24.384v9.408h-2.928V3.52h-7.248v21.936h3.744V28H6.776v-2.544zM27.157 25.456h3.456L38.437 3.52h-3.024V.976h13.2V3.52h-3.12l8.063 21.936h3.265V28H45.829v-2.544h3.6l-2.736-7.872H36.9l-2.689 7.872h3.6V28H27.157v-2.544zM45.925 15.04L41.989 3.568H41.7L37.668 15.04h8.256zM71.883 12.448c3.328.576 5.712 1.456 7.152 2.64 1.472 1.152 2.208 2.976 2.208 5.472 0 1.44-.336 2.768-1.008 3.984-.672 1.184-1.664 2.144-2.976 2.88-1.312.704-2.864 1.056-4.656 1.056-1.664 0-3.184-.336-4.56-1.008a9.035 9.035 0 01-3.312-2.784V28h-3.12v-9.12h2.88c.192 2.016.992 3.664 2.4 4.944 1.44 1.248 3.296 1.872 5.568 1.872 1.664 0 2.96-.4 3.888-1.2.928-.8 1.392-1.92 1.392-3.36 0-1.152-.208-2.048-.624-2.688-.416-.672-1.088-1.184-2.016-1.536-.896-.384-2.192-.72-3.888-1.008l-1.152-.192c-2.72-.448-4.832-1.312-6.336-2.592-1.504-1.312-2.256-3.072-2.256-5.28 0-2.336.768-4.144 2.304-5.424 1.536-1.312 3.6-1.968 6.192-1.968 1.472 0 2.8.256 3.984.768 1.216.48 2.192 1.184 2.928 2.112V.976h3.072v7.632h-2.832c-.608-3.584-2.928-5.376-6.96-5.376-1.632 0-2.912.384-3.84 1.152-.896.768-1.344 1.792-1.344 3.072 0 1.344.48 2.4 1.44 3.168.96.736 2.416 1.28 4.368 1.632l1.104.192zM85.153 25.456h3.744V3.52h-3.744V.976h11.424V3.52h-3.744v10.32L103.97 3.52h-3.072V.976h11.184V3.52h-3.552L96.817 14.368l11.904 11.088h3.6V28h-11.568v-2.544h3.168L92.833 15.184v10.272h3.744V28H85.153v-2.544zM115.528 25.456h3.744V3.52h-3.744V.976h11.424V3.52h-3.744v10.32l11.136-10.32h-3.072V.976h11.184V3.52h-3.552l-11.712 10.848 11.904 11.088h3.6V28h-11.568v-2.544h3.168l-11.088-10.272v10.272h3.744V28h-11.424v-2.544zM146.431 25.456h3.744V3.52h-3.744V.976h11.472V3.52h-3.792v21.936h3.792V28h-11.472v-2.544zM168.073 25.456h3.744V3.52h-7.392v6.864h-2.928V.976h24.384v9.408h-2.928V3.52h-7.248v21.936h3.744V28h-11.376v-2.544z" fill="#000"/>
</svg>